<svg width="110" height="39" viewBox="0 0 110 39" fill="none" xmlns="http://www.w3.org/2000/svg">
<path d="M54.6022 15.9015H50.0807V13.2371H62.3937V15.9015H57.8722V27.3667H54.6022V15.9015ZM66.7021 17.9402C67.0789 17.4154 67.5836 17.0184 68.216 16.7493C68.862 16.4802 69.6021 16.3456 70.4364 16.3456V19.2523C70.0865 19.2253 69.851 19.2119 69.7299 19.2119C68.8283 19.2119 68.1218 19.4676 67.6105 19.9789C67.0991 20.4768 66.8434 21.2304 66.8434 22.2397V27.3667H63.6945V16.5071H66.7021V17.9402ZM76.6298 16.3456C78.3119 16.3456 79.6037 16.7493 80.5053 17.5567C81.4069 18.3506 81.8577 19.555 81.8577 21.1698V27.3667H78.9107V26.0143C78.3186 27.0236 77.2152 27.5282 75.6003 27.5282C74.766 27.5282 74.0393 27.3869 73.4203 27.1043C72.8148 26.8217 72.3505 26.4315 72.0276 25.9336C71.7046 25.4356 71.5431 24.8705 71.5431 24.238C71.5431 23.2287 71.9199 22.4348 72.6735 21.8561C73.4405 21.2775 74.618 20.9882 76.2059 20.9882H78.7089C78.7089 20.3019 78.5003 19.7771 78.0831 19.4137C77.666 19.0369 77.0402 18.8486 76.2059 18.8486C75.6272 18.8486 75.0553 18.9427 74.4902 19.1311C73.9384 19.3061 73.4674 19.5483 73.0772 19.8578L71.9468 17.6576C72.5389 17.2405 73.2454 16.9175 74.0663 16.6887C74.9006 16.46 75.7551 16.3456 76.6298 16.3456ZM76.3876 25.4087C76.9258 25.4087 77.4035 25.2876 77.8207 25.0454C78.2379 24.7897 78.5339 24.4197 78.7089 23.9352V22.825H76.549C75.2572 22.825 74.6113 23.2489 74.6113 24.0967C74.6113 24.5004 74.766 24.8234 75.0755 25.0656C75.3985 25.2944 75.8358 25.4087 76.3876 25.4087ZM95.2894 16.5071L90.7074 27.3667H87.4576L82.8957 16.5071H86.1455L89.1531 23.8948L92.2616 16.5071H95.2894ZM96.5743 16.5071H99.7232V27.3667H96.5743V16.5071ZM98.1488 14.9932C97.5701 14.9932 97.0991 14.825 96.7358 14.4886C96.3725 14.1521 96.1908 13.735 96.1908 13.2371C96.1908 12.7392 96.3725 12.322 96.7358 11.9856C97.0991 11.6492 97.5701 11.481 98.1488 11.481C98.7274 11.481 99.1984 11.6424 99.5617 11.9654C99.9251 12.2884 100.107 12.6921 100.107 13.1765C100.107 13.7013 99.9251 14.1387 99.5617 14.4886C99.1984 14.825 98.7274 14.9932 98.1488 14.9932ZM109.65 26.8419C109.34 27.0706 108.957 27.2456 108.499 27.3667C108.055 27.4744 107.584 27.5282 107.086 27.5282C105.795 27.5282 104.792 27.1985 104.079 26.5391C103.379 25.8797 103.029 24.9108 103.029 23.6324V19.1715H101.354V16.7493H103.029V14.105H106.178V16.7493H108.883V19.1715H106.178V23.5921C106.178 24.0496 106.292 24.4062 106.521 24.6619C106.763 24.9041 107.1 25.0252 107.53 25.0252C108.028 25.0252 108.452 24.8906 108.802 24.6215L109.65 26.8419Z" fill="#3B3E44"/>
<path fill-rule="evenodd" clip-rule="evenodd" d="M2.13726 10.2064L0 11.5V29L19 39L38.5 29V11.5L19 0L4.96724 8.49351H23.0693V13.0231H15.3828V32.5139H9.82378V13.0231H2.13726V10.2064ZM32.9672 14.4643C31.892 14.9218 31.0342 15.5967 30.3936 16.4889V14.0525H25.2807V32.5139H30.6338V23.7979C30.6338 22.0822 31.0685 20.8011 31.9378 19.9547C32.8071 19.0854 34.0081 18.6507 35.5409 18.6507C35.7467 18.6507 36.1471 18.6736 36.7419 18.7193V13.778C35.3235 13.778 34.0653 14.0068 32.9672 14.4643Z" fill="#316BFF"/>
</svg>
