<svg width="20" height="21" viewBox="0 0 20 21" fill="none" xmlns="http://www.w3.org/2000/svg">
<g id="maki:arrow">
<path id="Vector" d="M11.0577 3.469C11.3077 3.21903 11.6468 3.07861 12.0003 3.07861C12.3539 3.07861 12.693 3.21903 12.943 3.469L18.943 9.469C19.193 9.71903 19.3334 10.0581 19.3334 10.4117C19.3334 10.7652 19.193 11.1043 18.943 11.3543L12.943 17.3543C12.6915 17.5972 12.3547 17.7316 12.0051 17.7286C11.6555 17.7255 11.3211 17.5853 11.0739 17.3381C10.8267 17.0909 10.6865 16.7565 10.6834 16.4069C10.6804 16.0573 10.8148 15.7205 11.0577 15.469L14.667 11.745H2.00033C1.6467 11.745 1.30757 11.6045 1.05752 11.3545C0.807468 11.1044 0.666992 10.7653 0.666992 10.4117C0.666992 10.058 0.807468 9.7189 1.05752 9.46885C1.30757 9.2188 1.6467 9.07833 2.00033 9.07833H14.667L11.0577 5.35433C10.8077 5.10429 10.6673 4.76521 10.6673 4.41166C10.6673 4.05811 10.8077 3.71903 11.0577 3.469Z" fill="#D1D2D6"/>
</g>
</svg>
