<svg width="21" height="21" viewBox="0 0 21 21" fill="none" xmlns="http://www.w3.org/2000/svg">
    <g id="mdi:cart-outline" clip-path="url(#clip0_2899_46476)">
        <path id="Vector"
            d="M14.1707 15.4998C14.6128 15.4998 15.0367 15.6754 15.3492 15.988C15.6618 16.3006 15.8374 16.7245 15.8374 17.1665C15.8374 17.6085 15.6618 18.0325 15.3492 18.345C15.0367 18.6576 14.6128 18.8332 14.1707 18.8332C13.7287 18.8332 13.3048 18.6576 12.9922 18.345C12.6797 18.0325 12.5041 17.6085 12.5041 17.1665C12.5041 16.2415 13.2457 15.4998 14.1707 15.4998ZM0.837402 2.1665H3.5624L4.34574 3.83317H16.6707C16.8917 3.83317 17.1037 3.92097 17.26 4.07725C17.4163 4.23353 17.5041 4.44549 17.5041 4.6665C17.5041 4.80817 17.4624 4.94984 17.4041 5.08317L14.4207 10.4748C14.1374 10.9832 13.5874 11.3332 12.9624 11.3332H6.75407L6.00407 12.6915L5.97907 12.7915C5.97907 12.8468 6.00102 12.8997 6.04009 12.9388C6.07916 12.9779 6.13215 12.9998 6.1874 12.9998H15.8374V14.6665H5.8374C5.39537 14.6665 4.97145 14.4909 4.65889 14.1783C4.34633 13.8658 4.17074 13.4419 4.17074 12.9998C4.17074 12.7082 4.24574 12.4332 4.37074 12.1998L5.50407 10.1582L2.50407 3.83317H0.837402V2.1665ZM5.8374 15.4998C6.27943 15.4998 6.70335 15.6754 7.01591 15.988C7.32847 16.3006 7.50407 16.7245 7.50407 17.1665C7.50407 17.6085 7.32847 18.0325 7.01591 18.345C6.70335 18.6576 6.27943 18.8332 5.8374 18.8332C5.39537 18.8332 4.97145 18.6576 4.65889 18.345C4.34633 18.0325 4.17074 17.6085 4.17074 17.1665C4.17074 16.2415 4.9124 15.4998 5.8374 15.4998ZM13.3374 9.6665L15.6541 5.49984H5.12074L7.0874 9.6665H13.3374Z"
            fill="currentColor" />
    </g>
    <defs>
        <clipPath id="clip0_2899_46476">
            <rect width="20" height="20" fill="white" transform="translate(0.00390625 0.5)" />
        </clipPath>
    </defs>
</svg>