<svg width="23" height="23" viewBox="0 0 23 23" fill="none" xmlns="http://www.w3.org/2000/svg">
<g id="DocumentDuplicateOutline">
<path id="Vector" d="M8.0503 6.78517V14.042C8.0503 14.5232 8.24144 14.9846 8.58168 15.3249C8.92191 15.6651 9.38336 15.8562 9.86452 15.8562H15.3072M8.0503 6.78517V4.97095C8.0503 4.48979 8.24144 4.02834 8.58168 3.68811C8.92191 3.34788 9.38336 3.15674 9.86452 3.15674H14.0245C14.2651 3.15679 14.4958 3.25239 14.6658 3.42252L18.6698 7.42649C18.8399 7.59657 18.9355 7.82726 18.9356 8.06782V14.042C18.9356 14.5232 18.7445 14.9846 18.4042 15.3249C18.064 15.6651 17.6025 15.8562 17.1214 15.8562H15.3072M8.0503 6.78517H6.23609C5.75493 6.78517 5.29348 6.97631 4.95325 7.31654C4.61301 7.65677 4.42188 8.11822 4.42188 8.59938V17.6705C4.42188 18.1516 4.61301 18.6131 4.95325 18.9533C5.29348 19.2935 5.75493 19.4847 6.23609 19.4847H13.4929C13.9741 19.4847 14.4356 19.2935 14.7758 18.9533C15.116 18.6131 15.3072 18.1516 15.3072 17.6705V15.8562" stroke="#D1D2D6" stroke-width="2.17706" stroke-linecap="round" stroke-linejoin="round"/>
</g>
</svg>
