<svg width="24" height="25" viewBox="0 0 24 25" fill="none" xmlns="http://www.w3.org/2000/svg">
<g id="fluent-emoji:money-bag" clip-path="url(#clip0_2686_54913)">
<g id="Group">
<g id="Group_2" filter="url(#filter0_d_2686_54913)">
<path id="Vector" d="M3.33105 15.8516C3.33105 11.0883 7.19281 7.22656 11.9561 7.22656H12.3783C17.1408 7.22656 21.0033 11.0883 21.0033 15.8516V16.0661C21.0033 17.8165 20.308 19.4952 19.0702 20.733C17.8325 21.9707 16.1537 22.6661 14.4033 22.6661H9.93105C8.18063 22.6661 6.50189 21.9707 5.26415 20.733C4.02641 19.4952 3.33105 17.8165 3.33105 16.0661V15.8516Z" fill="url(#paint0_radial_2686_54913)"/>
<path id="Vector_2" d="M3.33105 15.8516C3.33105 11.0883 7.19281 7.22656 11.9561 7.22656H12.3783C17.1408 7.22656 21.0033 11.0883 21.0033 15.8516V16.0661C21.0033 17.8165 20.308 19.4952 19.0702 20.733C17.8325 21.9707 16.1537 22.6661 14.4033 22.6661H9.93105C8.18063 22.6661 6.50189 21.9707 5.26415 20.733C4.02641 19.4952 3.33105 17.8165 3.33105 16.0661V15.8516Z" fill="url(#paint1_radial_2686_54913)"/>
</g>
<path id="Vector_3" d="M3.33105 15.8516C3.33105 11.0883 7.19281 7.22656 11.9561 7.22656H12.3783C17.1408 7.22656 21.0033 11.0883 21.0033 15.8516V16.0661C21.0033 17.8165 20.308 19.4952 19.0702 20.733C17.8325 21.9707 16.1537 22.6661 14.4033 22.6661H9.93105C8.18063 22.6661 6.50189 21.9707 5.26415 20.733C4.02641 19.4952 3.33105 17.8165 3.33105 16.0661V15.8516Z" fill="url(#paint2_radial_2686_54913)"/>
<path id="Vector_4" d="M3.33105 15.8516C3.33105 11.0883 7.19281 7.22656 11.9561 7.22656H12.3783C17.1408 7.22656 21.0033 11.0883 21.0033 15.8516V16.0661C21.0033 17.8165 20.308 19.4952 19.0702 20.733C17.8325 21.9707 16.1537 22.6661 14.4033 22.6661H9.93105C8.18063 22.6661 6.50189 21.9707 5.26415 20.733C4.02641 19.4952 3.33105 17.8165 3.33105 16.0661V15.8516Z" fill="url(#paint3_radial_2686_54913)"/>
<g id="Group_3" filter="url(#filter1_dd_2686_54913)">
<path id="Vector_5" d="M9.12063 3.7105C9.47313 4.31125 9.98688 5.08225 10.6469 5.7145H13.6881C14.3481 5.08225 14.8611 4.312 15.2144 3.7105C15.2566 3.63674 15.2833 3.55512 15.2928 3.47065C15.3024 3.38619 15.2945 3.30067 15.2697 3.21937C15.2449 3.13807 15.2037 3.06271 15.1486 2.99794C15.0936 2.93316 15.0259 2.88035 14.9496 2.84275C14.7096 2.71975 14.4276 2.77825 14.1944 2.914C13.6679 3.22075 13.3641 2.85925 12.8999 2.149C12.6666 1.792 12.3104 1.77325 12.1671 1.771C12.0246 1.77325 11.6684 1.792 11.4351 2.149C10.9701 2.85925 10.6671 3.22075 10.1406 2.914C9.90738 2.77825 9.62538 2.71975 9.38463 2.84275C9.30846 2.88042 9.24081 2.93328 9.18585 2.99808C9.13089 3.06289 9.08977 3.13826 9.06504 3.21955C9.04031 3.30084 9.03248 3.38634 9.04204 3.47077C9.0516 3.55521 9.07834 3.63679 9.12063 3.7105Z" fill="url(#paint4_linear_2686_54913)"/>
</g>
<g id="Group_4" filter="url(#filter2_f_2686_54913)">
<path id="Vector_6" d="M12.5997 10.8827C12.5997 10.7236 12.5365 10.571 12.424 10.4585C12.3115 10.3459 12.1588 10.2827 11.9997 10.2827C11.8406 10.2827 11.688 10.3459 11.5755 10.4585C11.4629 10.571 11.3997 10.7236 11.3997 10.8827V11.449C11.3997 11.5832 11.3097 11.6995 11.1845 11.7475C10.9681 11.8297 10.7642 11.9415 10.5785 12.0797C10.305 12.28 10.0835 12.543 9.9325 12.8465C9.78153 13.15 9.70548 13.4853 9.71071 13.8242C9.71071 14.6192 10.0692 15.1952 10.556 15.5642C11.0195 15.9167 11.5797 16.0682 12.026 16.1087C12.2075 16.1252 12.4782 16.174 12.7017 16.315C12.896 16.4372 13.0887 16.6465 13.1292 17.095C13.1682 17.524 12.9942 17.779 12.767 17.9522C12.5045 18.1525 12.1992 18.2162 12.122 18.2162C11.9412 18.2162 11.6315 18.1922 11.369 18.0497C11.1485 17.9297 10.9115 17.704 10.862 17.1512C10.8477 16.9927 10.7711 16.8463 10.649 16.7442C10.5268 16.6422 10.3691 16.5929 10.2106 16.6071C10.0521 16.6213 9.90567 16.6979 9.80362 16.8201C9.70158 16.9422 9.65224 17.0999 9.66646 17.2585C9.75196 18.2177 10.229 18.796 10.7967 19.105C10.922 19.1725 11.0487 19.2257 11.1725 19.2677C11.2371 19.2879 11.2938 19.3279 11.3345 19.3819C11.3753 19.436 11.3981 19.5015 11.3997 19.5692V20.0815C11.3997 20.2406 11.4629 20.3932 11.5755 20.5057C11.688 20.6182 11.8406 20.6815 11.9997 20.6815C12.1588 20.6815 12.3115 20.6182 12.424 20.5057C12.5365 20.3932 12.5997 20.2406 12.5997 20.0815V19.5745C12.5997 19.4395 12.6912 19.3217 12.8187 19.2745C13.0437 19.192 13.2792 19.0705 13.4937 18.907C13.9925 18.5267 14.4072 17.8945 14.3247 16.987C14.2482 16.1462 13.8267 15.64 13.3347 15.3295C12.9642 15.1035 12.5477 14.9635 12.116 14.92C11.4342 14.8847 10.9107 14.5082 10.9107 13.8242C10.9107 13.4477 11.0607 13.1717 11.2812 13.0067C11.738 12.6197 12.5142 12.6722 12.881 13.1582C13.043 13.3735 13.1157 13.6105 13.1322 13.8242C13.1577 14.1542 13.4435 14.4175 13.7742 14.392C14.1042 14.3672 14.351 14.1085 14.3255 13.7777C14.2894 13.3028 14.1196 12.8477 13.8357 12.4652C13.6077 12.1622 13.1765 11.8727 12.8232 11.7272C12.7595 11.7033 12.7043 11.661 12.6645 11.6058C12.6247 11.5505 12.6022 11.4847 12.5997 11.4167V10.8827Z" fill="url(#paint5_linear_2686_54913)"/>
</g>
<g id="Group_5" filter="url(#filter3_dd_2686_54913)">
<path id="Vector_7" d="M12.7491 10.8061C12.7491 10.6469 12.6859 10.4943 12.5734 10.3818C12.4608 10.2693 12.3082 10.2061 12.1491 10.2061C11.99 10.2061 11.8374 10.2693 11.7248 10.3818C11.6123 10.4943 11.5491 10.6469 11.5491 10.8061V11.3723C11.5491 11.5073 11.4591 11.6228 11.3338 11.6708C11.1175 11.7531 10.9135 11.8649 10.7278 12.0031C10.4545 12.2035 10.2332 12.4665 10.0824 12.77C9.93155 13.0735 9.85558 13.4087 9.86084 13.7476C9.86084 14.5426 10.2186 15.1186 10.7053 15.4876C11.1688 15.8401 11.7283 15.9923 12.1753 16.0328C12.3568 16.0493 12.6276 16.0973 12.8518 16.2383C13.0453 16.3606 13.2381 16.5698 13.2793 17.0183C13.3183 17.4481 13.1436 17.7031 12.9156 17.8763C12.6531 18.0766 12.3486 18.1396 12.2706 18.1396C12.0906 18.1396 11.7808 18.1156 11.5183 17.9738C11.2978 17.8538 11.0608 17.6273 11.0113 17.0753C11.0044 16.9968 10.982 16.9205 10.9455 16.8506C10.909 16.7808 10.8591 16.7188 10.7986 16.6682C10.7382 16.6177 10.6683 16.5795 10.5931 16.5559C10.5179 16.5323 10.4388 16.5238 10.3603 16.5308C10.2818 16.5378 10.2055 16.5602 10.1356 16.5967C10.0658 16.6332 10.0038 16.6831 9.95327 16.7435C9.90271 16.804 9.86455 16.8738 9.84097 16.949C9.81739 17.0242 9.80885 17.1033 9.81584 17.1818C9.90134 18.1418 10.3783 18.7201 10.9461 19.0283C11.0713 19.0958 11.1981 19.1498 11.3218 19.1911C11.4531 19.2361 11.5491 19.3546 11.5491 19.4933V20.0056C11.5491 20.1647 11.6123 20.3173 11.7248 20.4298C11.8374 20.5423 11.99 20.6056 12.1491 20.6056C12.3082 20.6056 12.4608 20.5423 12.5734 20.4298C12.6859 20.3173 12.7491 20.1647 12.7491 20.0056V19.4986C12.7491 19.3628 12.8406 19.2458 12.9681 19.1986C13.1931 19.1161 13.4286 18.9946 13.6431 18.8311C14.1418 18.4508 14.5566 17.8178 14.4741 16.9103C14.3976 16.0696 13.9761 15.5641 13.4841 15.2528C13.1136 15.0268 12.6971 14.8869 12.2653 14.8433C11.5836 14.8081 11.0601 14.4316 11.0601 13.7483C11.0601 13.3718 11.2101 13.0958 11.4306 12.9308C11.8873 12.5438 12.6636 12.5963 13.0303 13.0823C13.1923 13.2976 13.2651 13.5346 13.2816 13.7476C13.3071 14.0776 13.5928 14.3416 13.9236 14.3161C14.2536 14.2906 14.5003 14.0318 14.4748 13.7011C14.4388 13.2261 14.269 12.771 13.9851 12.3886C13.7571 12.0863 13.3258 11.7961 12.9726 11.6506C12.9089 11.6266 12.8536 11.5844 12.8139 11.5291C12.7741 11.4739 12.7516 11.4081 12.7491 11.3401V10.8061Z" fill="url(#paint6_linear_2686_54913)"/>
</g>
<g id="Group_6" filter="url(#filter4_d_2686_54913)">
<path id="Vector_8" d="M13.5113 5.71436H10.7873C10.3519 5.71436 9.99902 6.06727 9.99902 6.50261V6.50786C9.99902 6.94319 10.3519 7.29611 10.7873 7.29611H13.5113C13.9466 7.29611 14.2995 6.94319 14.2995 6.50786V6.50261C14.2995 6.06727 13.9466 5.71436 13.5113 5.71436Z" fill="url(#paint7_linear_2686_54913)"/>
<path id="Vector_9" d="M13.5113 5.71436H10.7873C10.3519 5.71436 9.99902 6.06727 9.99902 6.50261V6.50786C9.99902 6.94319 10.3519 7.29611 10.7873 7.29611H13.5113C13.9466 7.29611 14.2995 6.94319 14.2995 6.50786V6.50261C14.2995 6.06727 13.9466 5.71436 13.5113 5.71436Z" fill="url(#paint8_radial_2686_54913)"/>
</g>
<path id="Vector_10" d="M13.5113 5.71436H10.7873C10.3519 5.71436 9.99902 6.06727 9.99902 6.50261V6.50786C9.99902 6.94319 10.3519 7.29611 10.7873 7.29611H13.5113C13.9466 7.29611 14.2995 6.94319 14.2995 6.50786V6.50261C14.2995 6.06727 13.9466 5.71436 13.5113 5.71436Z" fill="url(#paint9_radial_2686_54913)"/>
</g>
</g>
<defs>
<filter id="filter0_d_2686_54913" x="0.831055" y="2.22656" width="24.6719" height="22.4395" filterUnits="userSpaceOnUse" color-interpolation-filters="sRGB">
<feFlood flood-opacity="0" result="BackgroundImageFix"/>
<feColorMatrix in="SourceAlpha" type="matrix" values="0 0 0 0 0 0 0 0 0 0 0 0 0 0 0 0 0 0 127 0" result="hardAlpha"/>
<feOffset dx="1" dy="-1.5"/>
<feGaussianBlur stdDeviation="1.75"/>
<feComposite in2="hardAlpha" operator="out"/>
<feColorMatrix type="matrix" values="0 0 0 0 0.713726 0 0 0 0 0.321569 0 0 0 0 0.211765 0 0 0 1 0"/>
<feBlend mode="normal" in2="BackgroundImageFix" result="effect1_dropShadow_2686_54913"/>
<feBlend mode="normal" in="SourceGraphic" in2="effect1_dropShadow_2686_54913" result="shape"/>
</filter>
<filter id="filter1_dd_2686_54913" x="8.53809" y="1.021" width="7.35879" height="5.19336" filterUnits="userSpaceOnUse" color-interpolation-filters="sRGB">
<feFlood flood-opacity="0" result="BackgroundImageFix"/>
<feColorMatrix in="SourceAlpha" type="matrix" values="0 0 0 0 0 0 0 0 0 0 0 0 0 0 0 0 0 0 127 0" result="hardAlpha"/>
<feOffset dx="-0.2" dy="0.2"/>
<feGaussianBlur stdDeviation="0.15"/>
<feComposite in2="hardAlpha" operator="out"/>
<feColorMatrix type="matrix" values="0 0 0 0 1 0 0 0 0 0.92549 0 0 0 0 0.403922 0 0 0 1 0"/>
<feBlend mode="normal" in2="BackgroundImageFix" result="effect1_dropShadow_2686_54913"/>
<feColorMatrix in="SourceAlpha" type="matrix" values="0 0 0 0 0 0 0 0 0 0 0 0 0 0 0 0 0 0 127 0" result="hardAlpha"/>
<feOffset dx="0.1" dy="-0.25"/>
<feGaussianBlur stdDeviation="0.25"/>
<feComposite in2="hardAlpha" operator="out"/>
<feColorMatrix type="matrix" values="0 0 0 0 0.788235 0 0 0 0 0.364706 0 0 0 0 0.12549 0 0 0 1 0"/>
<feBlend mode="normal" in2="effect1_dropShadow_2686_54913" result="effect2_dropShadow_2686_54913"/>
<feBlend mode="normal" in="SourceGraphic" in2="effect2_dropShadow_2686_54913" result="shape"/>
</filter>
<filter id="filter2_f_2686_54913" x="9.36406" y="9.98271" width="5.2709" height="10.9989" filterUnits="userSpaceOnUse" color-interpolation-filters="sRGB">
<feFlood flood-opacity="0" result="BackgroundImageFix"/>
<feBlend mode="normal" in="SourceGraphic" in2="BackgroundImageFix" result="shape"/>
<feGaussianBlur stdDeviation="0.15" result="effect1_foregroundBlur_2686_54913"/>
</filter>
<filter id="filter3_dd_2686_54913" x="9.49348" y="9.70605" width="5.4409" height="11.2694" filterUnits="userSpaceOnUse" color-interpolation-filters="sRGB">
<feFlood flood-opacity="0" result="BackgroundImageFix"/>
<feColorMatrix in="SourceAlpha" type="matrix" values="0 0 0 0 0 0 0 0 0 0 0 0 0 0 0 0 0 0 127 0" result="hardAlpha"/>
<feOffset dx="0.15" dy="-0.2"/>
<feGaussianBlur stdDeviation="0.15"/>
<feComposite in2="hardAlpha" operator="out"/>
<feColorMatrix type="matrix" values="0 0 0 0 0.352941 0 0 0 0 0.168627 0 0 0 0 0.188235 0 0 0 1 0"/>
<feBlend mode="normal" in2="BackgroundImageFix" result="effect1_dropShadow_2686_54913"/>
<feColorMatrix in="SourceAlpha" type="matrix" values="0 0 0 0 0 0 0 0 0 0 0 0 0 0 0 0 0 0 127 0" result="hardAlpha"/>
<feOffset dx="-0.1" dy="0.15"/>
<feGaussianBlur stdDeviation="0.11"/>
<feComposite in2="hardAlpha" operator="out"/>
<feColorMatrix type="matrix" values="0 0 0 0 0.670588 0 0 0 0 0.458824 0 0 0 0 0.403922 0 0 0 1 0"/>
<feBlend mode="normal" in2="effect1_dropShadow_2686_54913" result="effect2_dropShadow_2686_54913"/>
<feBlend mode="normal" in="SourceGraphic" in2="effect2_dropShadow_2686_54913" result="shape"/>
</filter>
<filter id="filter4_d_2686_54913" x="8.99902" y="4.11436" width="6.30078" height="3.58154" filterUnits="userSpaceOnUse" color-interpolation-filters="sRGB">
<feFlood flood-opacity="0" result="BackgroundImageFix"/>
<feColorMatrix in="SourceAlpha" type="matrix" values="0 0 0 0 0 0 0 0 0 0 0 0 0 0 0 0 0 0 127 0" result="hardAlpha"/>
<feOffset dy="-0.6"/>
<feGaussianBlur stdDeviation="0.5"/>
<feComposite in2="hardAlpha" operator="out"/>
<feColorMatrix type="matrix" values="0 0 0 0 0.388235 0 0 0 0 0.223529 0 0 0 0 0.109804 0 0 0 1 0"/>
<feBlend mode="normal" in2="BackgroundImageFix" result="effect1_dropShadow_2686_54913"/>
<feBlend mode="normal" in="SourceGraphic" in2="effect1_dropShadow_2686_54913" result="shape"/>
</filter>
<radialGradient id="paint0_radial_2686_54913" cx="0" cy="0" r="1" gradientUnits="userSpaceOnUse" gradientTransform="translate(14.5804 8.6742) rotate(100.07) scale(13.8064 14.4607)">
<stop stop-color="#F6C93B"/>
<stop offset="1" stop-color="#E88340"/>
</radialGradient>
<radialGradient id="paint1_radial_2686_54913" cx="0" cy="0" r="1" gradientUnits="userSpaceOnUse" gradientTransform="translate(18.0501 10.8295) rotate(133.199) scale(5.27276 8.83395)">
<stop stop-color="#FFE065"/>
<stop offset="1" stop-color="#FFE065" stop-opacity="0"/>
</radialGradient>
<radialGradient id="paint2_radial_2686_54913" cx="0" cy="0" r="1" gradientUnits="userSpaceOnUse" gradientTransform="translate(4.5498 10.8303) rotate(31.6513) scale(4.01979 9.96247)">
<stop offset="0.187" stop-color="#FFA45D"/>
<stop offset="1" stop-color="#FFA45D" stop-opacity="0"/>
</radialGradient>
<radialGradient id="paint3_radial_2686_54913" cx="0" cy="0" r="1" gradientUnits="userSpaceOnUse" gradientTransform="translate(12.1668 19.1268) rotate(-90) scale(12.2344 18.4329)">
<stop offset="0.928" stop-color="#F3BD46" stop-opacity="0"/>
<stop offset="0.98" stop-color="#917011"/>
</radialGradient>
<linearGradient id="paint4_linear_2686_54913" x1="13.1076" y1="3.1075" x2="12.1671" y2="5.7145" gradientUnits="userSpaceOnUse">
<stop stop-color="#F3C048"/>
<stop offset="1" stop-color="#E67A41"/>
</linearGradient>
<linearGradient id="paint5_linear_2686_54913" x1="11.9997" y1="10.531" x2="11.9997" y2="20.1407" gradientUnits="userSpaceOnUse">
<stop stop-color="#A6782C"/>
<stop offset="1" stop-color="#B95940"/>
</linearGradient>
<linearGradient id="paint6_linear_2686_54913" x1="14.7448" y1="16.5953" x2="9.81359" y2="16.5953" gradientUnits="userSpaceOnUse">
<stop stop-color="#9D6360"/>
<stop offset="1" stop-color="#724A4D"/>
</linearGradient>
<linearGradient id="paint7_linear_2686_54913" x1="10.5968" y1="6.50561" x2="14.2995" y2="6.50561" gradientUnits="userSpaceOnUse">
<stop stop-color="#834B41"/>
<stop offset="1" stop-color="#735854"/>
</linearGradient>
<radialGradient id="paint8_radial_2686_54913" cx="0" cy="0" r="1" gradientUnits="userSpaceOnUse" gradientTransform="translate(13.5495 6.25961) rotate(180) scale(1.40039 1.05469)">
<stop stop-color="#7D5A54"/>
<stop offset="1" stop-color="#7D5A54" stop-opacity="0"/>
</radialGradient>
<radialGradient id="paint9_radial_2686_54913" cx="0" cy="0" r="1" gradientUnits="userSpaceOnUse" gradientTransform="translate(13.737 6.50561) rotate(180) scale(4.14844 3.32327)">
<stop offset="0.695" stop-color="#B3624D" stop-opacity="0"/>
<stop offset="0.96" stop-color="#B3624D"/>
</radialGradient>
<clipPath id="clip0_2686_54913">
<rect width="24" height="24" fill="white" transform="translate(0 0.189453)"/>
</clipPath>
</defs>
</svg>
