<svg width="23" height="23" viewBox="0 0 23 23" fill="none" xmlns="http://www.w3.org/2000/svg">
<g id="fluent-emoji:rocket" clip-path="url(#clip0_2686_54933)">
<g id="Group">
<g id="Clip path group">
<mask id="mask0_2686_54933" style="mask-type:luminance" maskUnits="userSpaceOnUse" x="0" y="0" width="23" height="23">
<g id="f2130idv">
<path id="Vector" d="M0.355469 0.189453H22.3555V22.1895H0.355469V0.189453Z" fill="white"/>
</g>
</mask>
<g mask="url(#mask0_2686_54933)">
<g id="Group_2">
<path id="Vector_2" d="M7.62984 9.62043C8.45484 9.31655 9.25715 10.1189 8.95328 10.9446L7.15409 15.8354C7.11428 15.9438 7.04782 16.0404 6.96085 16.1163C6.87387 16.1922 6.76919 16.245 6.65644 16.2698C6.54369 16.2946 6.42651 16.2906 6.31572 16.2582C6.20492 16.2258 6.10407 16.166 6.02247 16.0843L2.49009 12.5519C2.40859 12.4703 2.34893 12.3695 2.31661 12.2588C2.28429 12.1481 2.28034 12.031 2.30513 11.9184C2.32992 11.8057 2.38264 11.7011 2.45846 11.6142C2.53427 11.5273 2.63073 11.4609 2.73896 11.421L7.62984 9.61974V9.62043Z" fill="url(#paint0_linear_2686_54933)"/>
<path id="Vector_3" d="M7.62984 9.62043C8.45484 9.31655 9.25715 10.1189 8.95328 10.9446L7.15409 15.8354C7.11428 15.9438 7.04782 16.0404 6.96085 16.1163C6.87387 16.1922 6.76919 16.245 6.65644 16.2698C6.54369 16.2946 6.42651 16.2906 6.31572 16.2582C6.20492 16.2258 6.10407 16.166 6.02247 16.0843L2.49009 12.5519C2.40859 12.4703 2.34893 12.3695 2.31661 12.2588C2.28429 12.1481 2.28034 12.031 2.30513 11.9184C2.32992 11.8057 2.38264 11.7011 2.45846 11.6142C2.53427 11.5273 2.63073 11.4609 2.73896 11.421L7.62984 9.61974V9.62043Z" fill="url(#paint1_radial_2686_54933)"/>
<path id="Vector_4" d="M7.62984 9.62043C8.45484 9.31655 9.25715 10.1189 8.95328 10.9446L7.15409 15.8354C7.11428 15.9438 7.04782 16.0404 6.96085 16.1163C6.87387 16.1922 6.76919 16.245 6.65644 16.2698C6.54369 16.2946 6.42651 16.2906 6.31572 16.2582C6.20492 16.2258 6.10407 16.166 6.02247 16.0843L2.49009 12.5519C2.40859 12.4703 2.34893 12.3695 2.31661 12.2588C2.28429 12.1481 2.28034 12.031 2.30513 11.9184C2.32992 11.8057 2.38264 11.7011 2.45846 11.6142C2.53427 11.5273 2.63073 11.4609 2.73896 11.421L7.62984 9.61974V9.62043Z" fill="url(#paint2_linear_2686_54933)"/>
<path id="Vector_5" d="M11.7548 13.7454C12.5805 13.4416 13.3828 14.2439 13.079 15.0696L11.2784 19.9604C11.2385 20.0687 11.1721 20.1651 11.0852 20.2409C10.9983 20.3167 10.8937 20.3695 10.781 20.3943C10.6684 20.4191 10.5513 20.4151 10.4406 20.3828C10.3299 20.3505 10.2291 20.2908 10.1475 20.2093L6.61509 16.6769C6.53359 16.5953 6.47393 16.4945 6.44161 16.3838C6.40929 16.2731 6.40534 16.156 6.43013 16.0434C6.45492 15.9307 6.50764 15.8261 6.58346 15.7392C6.65927 15.6523 6.75573 15.5859 6.86397 15.546L11.7548 13.7447V13.7454Z" fill="url(#paint3_linear_2686_54933)"/>
<path id="Vector_6" d="M11.7548 13.7454C12.5805 13.4416 13.3828 14.2439 13.079 15.0696L11.2784 19.9604C11.2385 20.0687 11.1721 20.1651 11.0852 20.2409C10.9983 20.3167 10.8937 20.3695 10.781 20.3943C10.6684 20.4191 10.5513 20.4151 10.4406 20.3828C10.3299 20.3505 10.2291 20.2908 10.1475 20.2093L6.61509 16.6769C6.53359 16.5953 6.47393 16.4945 6.44161 16.3838C6.40929 16.2731 6.40534 16.156 6.43013 16.0434C6.45492 15.9307 6.50764 15.8261 6.58346 15.7392C6.65927 15.6523 6.75573 15.5859 6.86397 15.546L11.7548 13.7447V13.7454Z" fill="url(#paint4_radial_2686_54933)"/>
<path id="Vector_7" d="M11.7548 13.7454C12.5805 13.4416 13.3828 14.2439 13.079 15.0696L11.2784 19.9604C11.2385 20.0687 11.1721 20.1651 11.0852 20.2409C10.9983 20.3167 10.8937 20.3695 10.781 20.3943C10.6684 20.4191 10.5513 20.4151 10.4406 20.3828C10.3299 20.3505 10.2291 20.2908 10.1475 20.2093L6.61509 16.6769C6.53359 16.5953 6.47393 16.4945 6.44161 16.3838C6.40929 16.2731 6.40534 16.156 6.43013 16.0434C6.45492 15.9307 6.50764 15.8261 6.58346 15.7392C6.65927 15.6523 6.75573 15.5859 6.86397 15.546L11.7548 13.7447V13.7454Z" fill="url(#paint5_radial_2686_54933)"/>
<g id="Group_3" filter="url(#filter0_d_2686_54933)">
<path id="Vector_8" d="M15.7546 2.62982C15.7734 2.62236 15.794 2.6206 15.8138 2.62476C15.8336 2.62891 15.8518 2.63881 15.866 2.6532L19.9119 6.73007C19.9262 6.74437 19.936 6.76255 19.94 6.78235C19.944 6.80215 19.9422 6.8227 19.9346 6.84145C18.9652 9.2202 17.6294 11.7502 15.8412 13.5391C14.0991 15.2812 11.1525 16.7655 8.49186 17.8573L4.7168 14.0815C5.80855 11.4209 7.29286 8.47495 9.03498 6.73282C10.8294 4.93845 13.369 3.59989 15.7539 2.63051L15.7546 2.62982Z" fill="url(#paint6_linear_2686_54933)"/>
<path id="Vector_9" d="M15.7546 2.62982C15.7734 2.62236 15.794 2.6206 15.8138 2.62476C15.8336 2.62891 15.8518 2.63881 15.866 2.6532L19.9119 6.73007C19.9262 6.74437 19.936 6.76255 19.94 6.78235C19.944 6.80215 19.9422 6.8227 19.9346 6.84145C18.9652 9.2202 17.6294 11.7502 15.8412 13.5391C14.0991 15.2812 11.1525 16.7655 8.49186 17.8573L4.7168 14.0815C5.80855 11.4209 7.29286 8.47495 9.03498 6.73282C10.8294 4.93845 13.369 3.59989 15.7539 2.63051L15.7546 2.62982Z" fill="url(#paint7_radial_2686_54933)"/>
<path id="Vector_10" d="M15.7546 2.62982C15.7734 2.62236 15.794 2.6206 15.8138 2.62476C15.8336 2.62891 15.8518 2.63881 15.866 2.6532L19.9119 6.73007C19.9262 6.74437 19.936 6.76255 19.94 6.78235C19.944 6.80215 19.9422 6.8227 19.9346 6.84145C18.9652 9.2202 17.6294 11.7502 15.8412 13.5391C14.0991 15.2812 11.1525 16.7655 8.49186 17.8573L4.7168 14.0815C5.80855 11.4209 7.29286 8.47495 9.03498 6.73282C10.8294 4.93845 13.369 3.59989 15.7539 2.63051L15.7546 2.62982Z" fill="url(#paint8_radial_2686_54933)"/>
<path id="Vector_11" d="M15.7546 2.62982C15.7734 2.62236 15.794 2.6206 15.8138 2.62476C15.8336 2.62891 15.8518 2.63881 15.866 2.6532L19.9119 6.73007C19.9262 6.74437 19.936 6.76255 19.94 6.78235C19.944 6.80215 19.9422 6.8227 19.9346 6.84145C18.9652 9.2202 17.6294 11.7502 15.8412 13.5391C14.0991 15.2812 11.1525 16.7655 8.49186 17.8573L4.7168 14.0815C5.80855 11.4209 7.29286 8.47495 9.03498 6.73282C10.8294 4.93845 13.369 3.59989 15.7539 2.63051L15.7546 2.62982Z" fill="url(#paint9_radial_2686_54933)"/>
<path id="Vector_12" d="M15.7546 2.62982C15.7734 2.62236 15.794 2.6206 15.8138 2.62476C15.8336 2.62891 15.8518 2.63881 15.866 2.6532L19.9119 6.73007C19.9262 6.74437 19.936 6.76255 19.94 6.78235C19.944 6.80215 19.9422 6.8227 19.9346 6.84145C18.9652 9.2202 17.6294 11.7502 15.8412 13.5391C14.0991 15.2812 11.1525 16.7655 8.49186 17.8573L4.7168 14.0815C5.80855 11.4209 7.29286 8.47495 9.03498 6.73282C10.8294 4.93845 13.369 3.59989 15.7539 2.63051L15.7546 2.62982Z" fill="url(#paint10_radial_2686_54933)"/>
</g>
<g id="Group_4" filter="url(#filter1_ddd_2686_54933)">
<path id="Vector_13" d="M17.1988 7.79456C17.204 8.10123 17.1482 8.40587 17.0345 8.69073C16.9208 8.97558 16.7515 9.23494 16.5365 9.45368C16.3216 9.67242 16.0651 9.84615 15.7823 9.96474C15.4994 10.0833 15.1958 10.1444 14.8891 10.1444C14.5824 10.1444 14.2788 10.0833 13.9959 9.96474C13.7131 9.84615 13.4567 9.67242 13.2417 9.45368C13.0267 9.23494 12.8574 8.97558 12.7437 8.69073C12.63 8.40587 12.5742 8.10123 12.5794 7.79456C12.5899 7.18891 12.8378 6.61159 13.2698 6.18697C13.7018 5.76235 14.2834 5.52441 14.8891 5.52441C15.4948 5.52441 16.0764 5.76235 16.5084 6.18697C16.9404 6.61159 17.1883 7.18891 17.1988 7.79456Z" fill="url(#paint11_linear_2686_54933)"/>
<path id="Vector_14" d="M17.1988 7.79456C17.204 8.10123 17.1482 8.40587 17.0345 8.69073C16.9208 8.97558 16.7515 9.23494 16.5365 9.45368C16.3216 9.67242 16.0651 9.84615 15.7823 9.96474C15.4994 10.0833 15.1958 10.1444 14.8891 10.1444C14.5824 10.1444 14.2788 10.0833 13.9959 9.96474C13.7131 9.84615 13.4567 9.67242 13.2417 9.45368C13.0267 9.23494 12.8574 8.97558 12.7437 8.69073C12.63 8.40587 12.5742 8.10123 12.5794 7.79456C12.5899 7.18891 12.8378 6.61159 13.2698 6.18697C13.7018 5.76235 14.2834 5.52441 14.8891 5.52441C15.4948 5.52441 16.0764 5.76235 16.5084 6.18697C16.9404 6.61159 17.1883 7.18891 17.1988 7.79456Z" fill="url(#paint12_radial_2686_54933)"/>
</g>
<path id="Vector_15" d="M16.4879 7.79449C16.4924 8.00723 16.4543 8.21872 16.3759 8.41655C16.2975 8.61439 16.1805 8.79459 16.0316 8.94661C15.8827 9.09863 15.7049 9.2194 15.5088 9.30185C15.3126 9.3843 15.102 9.42677 14.8892 9.42677C14.6764 9.42677 14.4657 9.3843 14.2696 9.30185C14.0734 9.2194 13.8956 9.09863 13.7468 8.94661C13.5979 8.79459 13.4808 8.61439 13.4024 8.41655C13.3241 8.21872 13.286 8.00723 13.2904 7.79449C13.2991 7.3762 13.4713 6.97798 13.7702 6.68523C14.0691 6.39248 14.4708 6.22852 14.8892 6.22852C15.3075 6.22852 15.7092 6.39248 16.0081 6.68523C16.307 6.97798 16.4793 7.3762 16.4879 7.79449Z" fill="url(#paint13_radial_2686_54933)"/>
<g id="Group_5" filter="url(#filter2_d_2686_54933)">
<path id="Vector_16" d="M2.0208 20.4931C1.53474 20.007 1.72999 16.6355 3.44874 15.948C3.44874 15.948 5.16749 15.2605 6.27505 16.3605C7.38262 17.4605 6.88624 18.698 6.88624 18.698C6.40018 20.1562 4.3308 20.7358 4.08743 20.4924C3.95337 20.3583 4.19468 20.1143 4.08743 20.007C3.98018 19.8991 3.8138 20.0222 3.35868 20.2497C3.03418 20.412 2.21537 20.6877 2.0208 20.4931Z" fill="url(#paint14_radial_2686_54933)"/>
<path id="Vector_17" d="M2.0208 20.4931C1.53474 20.007 1.72999 16.6355 3.44874 15.948C3.44874 15.948 5.16749 15.2605 6.27505 16.3605C7.38262 17.4605 6.88624 18.698 6.88624 18.698C6.40018 20.1562 4.3308 20.7358 4.08743 20.4924C3.95337 20.3583 4.19468 20.1143 4.08743 20.007C3.98018 19.8991 3.8138 20.0222 3.35868 20.2497C3.03418 20.412 2.21537 20.6877 2.0208 20.4931Z" fill="url(#paint15_radial_2686_54933)"/>
</g>
<path id="Vector_18" d="M4.52103 14.6143C4.6168 14.5185 4.73051 14.4424 4.85567 14.3906C4.98083 14.3387 5.11499 14.312 5.25047 14.312C5.38595 14.312 5.5201 14.3387 5.64526 14.3906C5.77042 14.4424 5.88414 14.5185 5.9799 14.6143L8.41022 17.0453C8.5948 17.2403 8.69601 17.4997 8.69234 17.7682C8.68867 18.0367 8.5804 18.2932 8.39056 18.4831C8.20072 18.6731 7.94428 18.7815 7.67577 18.7853C7.40726 18.7891 7.14785 18.688 6.95272 18.5035L4.52103 16.0732C4.4252 15.9774 4.34918 15.8637 4.29731 15.7385C4.24545 15.6134 4.21875 15.4792 4.21875 15.3437C4.21875 15.2082 4.24545 15.0741 4.29731 14.9489C4.34918 14.8238 4.4252 14.7101 4.52103 14.6143Z" fill="url(#paint16_linear_2686_54933)"/>
<path id="Vector_19" d="M4.52103 14.6143C4.6168 14.5185 4.73051 14.4424 4.85567 14.3906C4.98083 14.3387 5.11499 14.312 5.25047 14.312C5.38595 14.312 5.5201 14.3387 5.64526 14.3906C5.77042 14.4424 5.88414 14.5185 5.9799 14.6143L8.41022 17.0453C8.5948 17.2403 8.69601 17.4997 8.69234 17.7682C8.68867 18.0367 8.5804 18.2932 8.39056 18.4831C8.20072 18.6731 7.94428 18.7815 7.67577 18.7853C7.40726 18.7891 7.14785 18.688 6.95272 18.5035L4.52103 16.0732C4.4252 15.9774 4.34918 15.8637 4.29731 15.7385C4.24545 15.6134 4.21875 15.4792 4.21875 15.3437C4.21875 15.2082 4.24545 15.0741 4.29731 14.9489C4.34918 14.8238 4.4252 14.7101 4.52103 14.6143Z" fill="url(#paint17_radial_2686_54933)"/>
<path id="Vector_20" d="M4.52103 14.6143C4.6168 14.5185 4.73051 14.4424 4.85567 14.3906C4.98083 14.3387 5.11499 14.312 5.25047 14.312C5.38595 14.312 5.5201 14.3387 5.64526 14.3906C5.77042 14.4424 5.88414 14.5185 5.9799 14.6143L8.41022 17.0453C8.5948 17.2403 8.69601 17.4997 8.69234 17.7682C8.68867 18.0367 8.5804 18.2932 8.39056 18.4831C8.20072 18.6731 7.94428 18.7815 7.67577 18.7853C7.40726 18.7891 7.14785 18.688 6.95272 18.5035L4.52103 16.0732C4.4252 15.9774 4.34918 15.8637 4.29731 15.7385C4.24545 15.6134 4.21875 15.4792 4.21875 15.3437C4.21875 15.2082 4.24545 15.0741 4.29731 14.9489C4.34918 14.8238 4.4252 14.7101 4.52103 14.6143Z" fill="url(#paint18_radial_2686_54933)"/>
<path id="Vector_21" d="M20.4109 2.16314C19.7598 1.51208 18.6179 1.58564 17.786 1.87164C17.1583 2.08673 16.5362 2.31757 15.9201 2.56395C15.9096 2.56817 15.9003 2.57492 15.893 2.5836C15.8857 2.59228 15.8807 2.60263 15.8784 2.61372C15.8761 2.62481 15.8766 2.6363 15.8797 2.64717C15.8829 2.65804 15.8888 2.66794 15.8967 2.67601L19.8911 6.6972C19.8991 6.70502 19.909 6.71076 19.9197 6.71391C19.9305 6.71707 19.9418 6.71755 19.9528 6.71531C19.9638 6.71308 19.974 6.70819 19.9827 6.70108C19.9914 6.69397 19.9982 6.68485 20.0025 6.67451C20.252 6.05195 20.4855 5.42314 20.703 4.7887C20.9849 3.96783 21.2118 2.96408 20.4109 2.16314Z" fill="url(#paint19_linear_2686_54933)"/>
<path id="Vector_22" d="M20.4109 2.16314C19.7598 1.51208 18.6179 1.58564 17.786 1.87164C17.1583 2.08673 16.5362 2.31757 15.9201 2.56395C15.9096 2.56817 15.9003 2.57492 15.893 2.5836C15.8857 2.59228 15.8807 2.60263 15.8784 2.61372C15.8761 2.62481 15.8766 2.6363 15.8797 2.64717C15.8829 2.65804 15.8888 2.66794 15.8967 2.67601L19.8911 6.6972C19.8991 6.70502 19.909 6.71076 19.9197 6.71391C19.9305 6.71707 19.9418 6.71755 19.9528 6.71531C19.9638 6.71308 19.974 6.70819 19.9827 6.70108C19.9914 6.69397 19.9982 6.68485 20.0025 6.67451C20.252 6.05195 20.4855 5.42314 20.703 4.7887C20.9849 3.96783 21.2118 2.96408 20.4109 2.16314Z" fill="url(#paint20_radial_2686_54933)"/>
<path id="Vector_23" d="M20.4109 2.16314C19.7598 1.51208 18.6179 1.58564 17.786 1.87164C17.1583 2.08673 16.5362 2.31757 15.9201 2.56395C15.9096 2.56817 15.9003 2.57492 15.893 2.5836C15.8857 2.59228 15.8807 2.60263 15.8784 2.61372C15.8761 2.62481 15.8766 2.6363 15.8797 2.64717C15.8829 2.65804 15.8888 2.66794 15.8967 2.67601L19.8911 6.6972C19.8991 6.70502 19.909 6.71076 19.9197 6.71391C19.9305 6.71707 19.9418 6.71755 19.9528 6.71531C19.9638 6.71308 19.974 6.70819 19.9827 6.70108C19.9914 6.69397 19.9982 6.68485 20.0025 6.67451C20.252 6.05195 20.4855 5.42314 20.703 4.7887C20.9849 3.96783 21.2118 2.96408 20.4109 2.16314Z" fill="url(#paint21_linear_2686_54933)"/>
<path id="Vector_24" d="M9.69303 11.6829C10.518 11.3791 11.3203 12.1814 11.0165 13.0071L9.21659 17.8979C9.17678 18.0063 9.11032 18.1029 9.02335 18.1788C8.93637 18.2547 8.83169 18.3075 8.71894 18.3323C8.60619 18.3571 8.48901 18.3531 8.37822 18.3207C8.26742 18.2883 8.16657 18.2285 8.08496 18.1468L4.55259 14.6144C4.47109 14.5328 4.41143 14.432 4.37911 14.3213C4.34679 14.2106 4.34284 14.0935 4.36763 13.9809C4.39242 13.8682 4.44514 13.7636 4.52096 13.6767C4.59677 13.5898 4.69323 13.5234 4.80146 13.4835L9.69303 11.6822V11.6829Z" fill="url(#paint22_linear_2686_54933)"/>
<path id="Vector_25" d="M9.69303 11.6829C10.518 11.3791 11.3203 12.1814 11.0165 13.0071L9.21659 17.8979C9.17678 18.0063 9.11032 18.1029 9.02335 18.1788C8.93637 18.2547 8.83169 18.3075 8.71894 18.3323C8.60619 18.3571 8.48901 18.3531 8.37822 18.3207C8.26742 18.2883 8.16657 18.2285 8.08496 18.1468L4.55259 14.6144C4.47109 14.5328 4.41143 14.432 4.37911 14.3213C4.34679 14.2106 4.34284 14.0935 4.36763 13.9809C4.39242 13.8682 4.44514 13.7636 4.52096 13.6767C4.59677 13.5898 4.69323 13.5234 4.80146 13.4835L9.69303 11.6822V11.6829Z" fill="url(#paint23_radial_2686_54933)"/>
<path id="Vector_26" d="M9.69303 11.6829C10.518 11.3791 11.3203 12.1814 11.0165 13.0071L9.21659 17.8979C9.17678 18.0063 9.11032 18.1029 9.02335 18.1788C8.93637 18.2547 8.83169 18.3075 8.71894 18.3323C8.60619 18.3571 8.48901 18.3531 8.37822 18.3207C8.26742 18.2883 8.16657 18.2285 8.08496 18.1468L4.55259 14.6144C4.47109 14.5328 4.41143 14.432 4.37911 14.3213C4.34679 14.2106 4.34284 14.0935 4.36763 13.9809C4.39242 13.8682 4.44514 13.7636 4.52096 13.6767C4.59677 13.5898 4.69323 13.5234 4.80146 13.4835L9.69303 11.6822V11.6829Z" fill="url(#paint24_radial_2686_54933)"/>
<path id="Vector_27" d="M9.69303 11.6829C10.518 11.3791 11.3203 12.1814 11.0165 13.0071L9.21659 17.8979C9.17678 18.0063 9.11032 18.1029 9.02335 18.1788C8.93637 18.2547 8.83169 18.3075 8.71894 18.3323C8.60619 18.3571 8.48901 18.3531 8.37822 18.3207C8.26742 18.2883 8.16657 18.2285 8.08496 18.1468L4.55259 14.6144C4.47109 14.5328 4.41143 14.432 4.37911 14.3213C4.34679 14.2106 4.34284 14.0935 4.36763 13.9809C4.39242 13.8682 4.44514 13.7636 4.52096 13.6767C4.59677 13.5898 4.69323 13.5234 4.80146 13.4835L9.69303 11.6822V11.6829Z" fill="url(#paint25_radial_2686_54933)"/>
<g id="Group_6" filter="url(#filter3_f_2686_54933)">
<path id="Vector_28" d="M6.68359 15.3467L10.5508 12.3169L8.05859 16.743L6.68359 15.3467Z" fill="url(#paint26_linear_2686_54933)"/>
</g>
</g>
</g>
</g>
</g>
</g>
<defs>
<filter id="filter0_d_2686_54933" x="2.9668" y="0.622559" width="18.2256" height="18.2349" filterUnits="userSpaceOnUse" color-interpolation-filters="sRGB">
<feFlood flood-opacity="0" result="BackgroundImageFix"/>
<feColorMatrix in="SourceAlpha" type="matrix" values="0 0 0 0 0 0 0 0 0 0 0 0 0 0 0 0 0 0 127 0" result="hardAlpha"/>
<feOffset dx="-0.25" dy="-0.5"/>
<feGaussianBlur stdDeviation="0.75"/>
<feComposite in2="hardAlpha" operator="out"/>
<feColorMatrix type="matrix" values="0 0 0 0 0.745098 0 0 0 0 0.772549 0 0 0 0 0.952941 0 0 0 1 0"/>
<feBlend mode="normal" in2="BackgroundImageFix" result="effect1_dropShadow_2686_54933"/>
<feBlend mode="normal" in="SourceGraphic" in2="effect1_dropShadow_2686_54933" result="shape"/>
</filter>
<filter id="filter1_ddd_2686_54933" x="11.5791" y="4.77441" width="6.62012" height="6.62012" filterUnits="userSpaceOnUse" color-interpolation-filters="sRGB">
<feFlood flood-opacity="0" result="BackgroundImageFix"/>
<feColorMatrix in="SourceAlpha" type="matrix" values="0 0 0 0 0 0 0 0 0 0 0 0 0 0 0 0 0 0 127 0" result="hardAlpha"/>
<feOffset dy="0.25"/>
<feGaussianBlur stdDeviation="0.5"/>
<feComposite in2="hardAlpha" operator="out"/>
<feColorMatrix type="matrix" values="0 0 0 0 0.866667 0 0 0 0 0.764706 0 0 0 0 0.847059 0 0 0 1 0"/>
<feBlend mode="normal" in2="BackgroundImageFix" result="effect1_dropShadow_2686_54933"/>
<feColorMatrix in="SourceAlpha" type="matrix" values="0 0 0 0 0 0 0 0 0 0 0 0 0 0 0 0 0 0 127 0" result="hardAlpha"/>
<feOffset dx="-0.1" dy="0.1"/>
<feGaussianBlur stdDeviation="0.05"/>
<feComposite in2="hardAlpha" operator="out"/>
<feColorMatrix type="matrix" values="0 0 0 0 0.721569 0 0 0 0 0.690196 0 0 0 0 0.701961 0 0 0 1 0"/>
<feBlend mode="normal" in2="effect1_dropShadow_2686_54933" result="effect2_dropShadow_2686_54933"/>
<feColorMatrix in="SourceAlpha" type="matrix" values="0 0 0 0 0 0 0 0 0 0 0 0 0 0 0 0 0 0 127 0" result="hardAlpha"/>
<feOffset dx="0.1" dy="-0.1"/>
<feGaussianBlur stdDeviation="0.05"/>
<feComposite in2="hardAlpha" operator="out"/>
<feColorMatrix type="matrix" values="0 0 0 0 0.615686 0 0 0 0 0.560784 0 0 0 0 0.65098 0 0 0 1 0"/>
<feBlend mode="normal" in2="effect2_dropShadow_2686_54933" result="effect3_dropShadow_2686_54933"/>
<feBlend mode="normal" in="SourceGraphic" in2="effect3_dropShadow_2686_54933" result="shape"/>
</filter>
<filter id="filter2_d_2686_54933" x="1.39004" y="15.1358" width="6.00703" height="5.62422" filterUnits="userSpaceOnUse" color-interpolation-filters="sRGB">
<feFlood flood-opacity="0" result="BackgroundImageFix"/>
<feColorMatrix in="SourceAlpha" type="matrix" values="0 0 0 0 0 0 0 0 0 0 0 0 0 0 0 0 0 0 127 0" result="hardAlpha"/>
<feOffset dy="-0.2"/>
<feGaussianBlur stdDeviation="0.2"/>
<feComposite in2="hardAlpha" operator="out"/>
<feColorMatrix type="matrix" values="0 0 0 0 0.847059 0 0 0 0 0.505882 0 0 0 0 0.360784 0 0 0 1 0"/>
<feBlend mode="normal" in2="BackgroundImageFix" result="effect1_dropShadow_2686_54933"/>
<feBlend mode="normal" in="SourceGraphic" in2="effect1_dropShadow_2686_54933" result="shape"/>
</filter>
<filter id="filter3_f_2686_54933" x="5.68359" y="11.3169" width="5.86719" height="6.42627" filterUnits="userSpaceOnUse" color-interpolation-filters="sRGB">
<feFlood flood-opacity="0" result="BackgroundImageFix"/>
<feBlend mode="normal" in="SourceGraphic" in2="BackgroundImageFix" result="shape"/>
<feGaussianBlur stdDeviation="0.5" result="effect1_foregroundBlur_2686_54933"/>
</filter>
<linearGradient id="paint0_linear_2686_54933" x1="5.93103" y1="12.0886" x2="2.49353" y2="11.5221" gradientUnits="userSpaceOnUse">
<stop stop-color="#EE2452"/>
<stop offset="1" stop-color="#F63E7A"/>
</linearGradient>
<radialGradient id="paint1_radial_2686_54933" cx="0" cy="0" r="1" gradientUnits="userSpaceOnUse" gradientTransform="translate(2.00334 11.9201) rotate(-19.9576) scale(5.50115 0.935311)">
<stop offset="0.164" stop-color="#FF8DB0"/>
<stop offset="1" stop-color="#FF8DB0" stop-opacity="0"/>
</radialGradient>
<linearGradient id="paint2_linear_2686_54933" x1="3.7269" y1="13.7557" x2="4.28722" y2="13.2092" gradientUnits="userSpaceOnUse">
<stop offset="0.491" stop-color="#DD467C"/>
<stop offset="1" stop-color="#DD467C" stop-opacity="0"/>
</linearGradient>
<linearGradient id="paint3_linear_2686_54933" x1="12.6562" y1="15.0888" x2="8.38128" y2="18.4431" gradientUnits="userSpaceOnUse">
<stop stop-color="#F83267"/>
<stop offset="1" stop-color="#FF3190"/>
</linearGradient>
<radialGradient id="paint4_radial_2686_54933" cx="0" cy="0" r="1" gradientUnits="userSpaceOnUse" gradientTransform="translate(10.3788 15.4536) rotate(86.482) scale(5.25186 4.52792)">
<stop offset="0.757" stop-color="#E76CBE" stop-opacity="0"/>
<stop offset="0.951" stop-color="#E76CBE"/>
</radialGradient>
<radialGradient id="paint5_radial_2686_54933" cx="0" cy="0" r="1" gradientUnits="userSpaceOnUse" gradientTransform="translate(9.60503 18.2252) rotate(-57.346) scale(3.62348 1.59161)">
<stop stop-color="#FF5898"/>
<stop offset="1" stop-color="#FF5898" stop-opacity="0"/>
</radialGradient>
<linearGradient id="paint6_linear_2686_54933" x1="9.62623" y1="6.1512" x2="15.6845" y2="12.2528" gradientUnits="userSpaceOnUse">
<stop stop-color="#CCBBC0"/>
<stop offset="1" stop-color="#EAD2EC"/>
</linearGradient>
<radialGradient id="paint7_radial_2686_54933" cx="0" cy="0" r="1" gradientUnits="userSpaceOnUse" gradientTransform="translate(16.834 15.0234) rotate(-142.447) scale(11.4654 21.552)">
<stop offset="0.811" stop-color="#E7E5E5" stop-opacity="0"/>
<stop offset="1" stop-color="#E7E5E5"/>
</radialGradient>
<radialGradient id="paint8_radial_2686_54933" cx="0" cy="0" r="1" gradientUnits="userSpaceOnUse" gradientTransform="translate(6.66655 14.8398) rotate(-56.929) scale(6.74012 3.16779)">
<stop offset="0.281" stop-color="#B5A3A5"/>
<stop offset="1" stop-color="#B5A3A5" stop-opacity="0"/>
</radialGradient>
<radialGradient id="paint9_radial_2686_54933" cx="0" cy="0" r="1" gradientUnits="userSpaceOnUse" gradientTransform="translate(4.71633 14.0016) rotate(-73.625) scale(5.97519 1.01248)">
<stop offset="0.208" stop-color="#B28F96"/>
<stop offset="1" stop-color="#B28F96" stop-opacity="0"/>
</radialGradient>
<radialGradient id="paint10_radial_2686_54933" cx="0" cy="0" r="1" gradientUnits="userSpaceOnUse" gradientTransform="translate(18.9927 5.07732) rotate(137.284) scale(9.05781 2.81235)">
<stop stop-color="#FAECF1"/>
<stop offset="1" stop-color="#FAECF1" stop-opacity="0"/>
</radialGradient>
<linearGradient id="paint11_linear_2686_54933" x1="12.5794" y1="7.402" x2="17.1988" y2="7.79456" gradientUnits="userSpaceOnUse">
<stop stop-color="#A796A0"/>
<stop offset="1" stop-color="#A5959F"/>
</linearGradient>
<radialGradient id="paint12_radial_2686_54933" cx="0" cy="0" r="1" gradientUnits="userSpaceOnUse" gradientTransform="translate(14.8901 7.79456) rotate(90) scale(2.30957)">
<stop offset="0.587" stop-color="#93859B"/>
<stop offset="1" stop-color="#93859B" stop-opacity="0"/>
</radialGradient>
<radialGradient id="paint13_radial_2686_54933" cx="0" cy="0" r="1" gradientUnits="userSpaceOnUse" gradientTransform="translate(14.8888 9.39361) rotate(-90) scale(3.33134 3.06368)">
<stop stop-color="#72CDFF"/>
<stop offset="0.738" stop-color="#66ACFF"/>
<stop offset="1" stop-color="#3B57F4"/>
</radialGradient>
<radialGradient id="paint14_radial_2686_54933" cx="0" cy="0" r="1" gradientUnits="userSpaceOnUse" gradientTransform="translate(5.9863 16.859) rotate(135) scale(3.99193 3.13775)">
<stop stop-color="#D46213"/>
<stop offset="1" stop-color="#FF9542"/>
</radialGradient>
<radialGradient id="paint15_radial_2686_54933" cx="0" cy="0" r="1" gradientUnits="userSpaceOnUse" gradientTransform="translate(6.06399 20.106) rotate(-131.186) scale(4.93249 5.19802)">
<stop offset="0.871" stop-color="#FFC484" stop-opacity="0"/>
<stop offset="1" stop-color="#FFC484"/>
</radialGradient>
<linearGradient id="paint16_linear_2686_54933" x1="4.3409" y1="15.2819" x2="8.12215" y2="18.9985" gradientUnits="userSpaceOnUse">
<stop stop-color="#452860"/>
<stop offset="1" stop-color="#51509F"/>
</linearGradient>
<radialGradient id="paint17_radial_2686_54933" cx="0" cy="0" r="1" gradientUnits="userSpaceOnUse" gradientTransform="translate(5.0504 14.9381) rotate(77.8285) scale(1.1209 0.990344)">
<stop stop-color="#8E839A"/>
<stop offset="1" stop-color="#8E839A" stop-opacity="0"/>
</radialGradient>
<radialGradient id="paint18_radial_2686_54933" cx="0" cy="0" r="1" gradientUnits="userSpaceOnUse" gradientTransform="translate(5.30959 15.6015) rotate(47.9357) scale(4.27096 2.23875)">
<stop offset="0.86" stop-color="#6175B9" stop-opacity="0"/>
<stop offset="1" stop-color="#6175B9"/>
</radialGradient>
<linearGradient id="paint19_linear_2686_54933" x1="20.4143" y1="2.16658" x2="17.887" y2="4.69383" gradientUnits="userSpaceOnUse">
<stop stop-color="#FF3745"/>
<stop offset="1" stop-color="#ED224B"/>
</linearGradient>
<radialGradient id="paint20_radial_2686_54933" cx="0" cy="0" r="1" gradientUnits="userSpaceOnUse" gradientTransform="translate(20.1132 3.17853) rotate(135) scale(5.66965 1.36104)">
<stop offset="0.189" stop-color="#FF5971"/>
<stop offset="1" stop-color="#FF5971" stop-opacity="0"/>
</radialGradient>
<linearGradient id="paint21_linear_2686_54933" x1="18.1077" y1="4.86226" x2="18.36" y2="4.59895" gradientUnits="userSpaceOnUse">
<stop stop-color="#D2575E"/>
<stop offset="1" stop-color="#F93251" stop-opacity="0"/>
</linearGradient>
<linearGradient id="paint22_linear_2686_54933" x1="10.7779" y1="11.9215" x2="6.31878" y2="16.3806" gradientUnits="userSpaceOnUse">
<stop stop-color="#FF2644"/>
<stop offset="1" stop-color="#FF2982"/>
</linearGradient>
<radialGradient id="paint23_radial_2686_54933" cx="0" cy="0" r="1" gradientUnits="userSpaceOnUse" gradientTransform="translate(4.64265 13.5419) rotate(-20.865) scale(5.12725 1.34227)">
<stop stop-color="#FF95AF"/>
<stop offset="1" stop-color="#FF95AF" stop-opacity="0"/>
</radialGradient>
<radialGradient id="paint24_radial_2686_54933" cx="0" cy="0" r="1" gradientUnits="userSpaceOnUse" gradientTransform="translate(4.06653 14.1511) rotate(44.7044) scale(3.16952 0.936247)">
<stop offset="0.382" stop-color="#E14678"/>
<stop offset="1" stop-color="#E14678" stop-opacity="0"/>
</radialGradient>
<radialGradient id="paint25_radial_2686_54933" cx="0" cy="0" r="1" gradientUnits="userSpaceOnUse" gradientTransform="translate(8.31665 13.3481) rotate(84.6743) scale(5.09229 5.42658)">
<stop offset="0.832" stop-color="#E67BC7" stop-opacity="0"/>
<stop offset="1" stop-color="#E67BC7"/>
</radialGradient>
<linearGradient id="paint26_linear_2686_54933" x1="9.97053" y1="12.6393" x2="7.13459" y2="15.6045" gradientUnits="userSpaceOnUse">
<stop stop-color="#FF5970"/>
<stop offset="1" stop-color="#FF5794"/>
</linearGradient>
<clipPath id="clip0_2686_54933">
<rect width="22" height="22" fill="white" transform="translate(0.355469 0.189453)"/>
</clipPath>
</defs>
</svg>
