<svg width="21" height="21" viewBox="0 0 21 21" fill="none" xmlns="http://www.w3.org/2000/svg">
<g id="fluent:learning-app-24-regular">
<path id="Vector" d="M4.58724 2.1665C4.03471 2.1665 3.5048 2.386 3.1141 2.7767C2.7234 3.1674 2.50391 3.6973 2.50391 4.24984V16.7498C2.50391 17.3024 2.7234 17.8323 3.1141 18.223C3.5048 18.6137 4.03471 18.8332 4.58724 18.8332H10.6789C10.3216 18.4613 10.0192 18.0404 9.78057 17.5832H4.58724C4.36623 17.5832 4.15426 17.4954 3.99798 17.3391C3.8417 17.1828 3.75391 16.9709 3.75391 16.7498H9.43141C9.30067 16.3443 9.21843 15.9247 9.18641 15.4998H3.75391V4.24984C3.75391 4.02882 3.8417 3.81686 3.99798 3.66058C4.15426 3.5043 4.36623 3.4165 4.58724 3.4165H14.1706C14.3916 3.4165 14.6035 3.5043 14.7598 3.66058C14.9161 3.81686 15.0039 4.02882 15.0039 4.24984V9.68234C15.4372 9.71567 15.8556 9.799 16.2539 9.92734V4.24984C16.2539 3.6973 16.0344 3.1674 15.6437 2.7767C15.253 2.386 14.7231 2.1665 14.1706 2.1665H4.58724ZM19.1706 15.0832C19.1706 13.8676 18.6877 12.7018 17.8281 11.8423C16.9686 10.9827 15.8028 10.4998 14.5872 10.4998C13.3717 10.4998 12.2059 10.9827 11.3463 11.8423C10.4868 12.7018 10.0039 13.8676 10.0039 15.0832C10.0039 16.2987 10.4868 17.4645 11.3463 18.3241C12.2059 19.1836 13.3717 19.6665 14.5872 19.6665C15.8028 19.6665 16.9686 19.1836 17.8281 18.3241C18.6877 17.4645 19.1706 16.2987 19.1706 15.0832ZM14.0989 13.0807L16.4372 14.614C16.5097 14.6605 16.5691 14.7247 16.61 14.8005C16.6508 14.8763 16.6716 14.9612 16.6706 15.0473C16.6707 15.134 16.6501 15.2194 16.6106 15.2965C16.5733 15.3728 16.5163 15.4378 16.4456 15.4848L14.1064 17.0807C14.0657 17.1081 14.0214 17.1297 13.9747 17.1448C13.8664 17.1794 13.7491 17.1726 13.6456 17.1257C13.5859 17.0977 13.5315 17.0597 13.4847 17.0132C13.4396 16.964 13.403 16.9077 13.3764 16.8465C13.3504 16.7839 13.3371 16.7168 13.3372 16.649V13.5173C13.3368 13.4171 13.3655 13.3188 13.4198 13.2345C13.474 13.1502 13.5516 13.0834 13.6431 13.0423C13.7157 13.0083 13.796 12.9938 13.876 13.0004C13.9559 13.007 14.0328 13.0344 14.0989 13.0798V13.0807ZM5.00391 5.49984C5.00391 5.27882 5.0917 5.06686 5.24798 4.91058C5.40426 4.7543 5.61623 4.6665 5.83724 4.6665H12.5039C12.7249 4.6665 12.9369 4.7543 13.0932 4.91058C13.2494 5.06686 13.3372 5.27882 13.3372 5.49984V7.1665C13.3372 7.38752 13.2494 7.59948 13.0932 7.75576C12.9369 7.91204 12.7249 7.99984 12.5039 7.99984H5.83724C5.61623 7.99984 5.40426 7.91204 5.24798 7.75576C5.0917 7.59948 5.00391 7.38752 5.00391 7.1665V5.49984ZM6.25391 6.74984H12.0872V5.9165H6.25391V6.74984Z" fill="currentColor"/>
</g>
</svg>
