<svg width="30" height="30" viewBox="0 0 30 30" fill="none" xmlns="http://www.w3.org/2000/svg">
<g id="Group 1216400500">
<path id="Star 1" d="M14.1259 1.57311C14.5069 0.887393 15.4931 0.887393 15.8741 1.57311L17.8774 5.17839C18.1192 5.61346 18.6441 5.80452 19.109 5.62663L22.961 4.15253C23.6937 3.87216 24.4491 4.50607 24.3003 5.27628L23.5175 9.3258C23.423 9.81448 23.7023 10.2982 24.1727 10.4608L28.0711 11.8076C28.8126 12.0638 28.9838 13.035 28.3747 13.5293L25.1721 16.1282C24.7856 16.4419 24.6886 16.992 24.9445 17.4189L27.0651 20.9564C27.4684 21.6293 26.9753 22.4833 26.191 22.4705L22.067 22.4027C21.5694 22.3946 21.1415 22.7536 21.0631 23.2451L20.4137 27.3182C20.2901 28.0929 19.3634 28.4302 18.7709 27.9161L15.6553 25.2134C15.2793 24.8873 14.7207 24.8873 14.3447 25.2134L11.2291 27.9161C10.6366 28.4302 9.70985 28.0929 9.58633 27.3182L8.9369 23.2451C8.85853 22.7536 8.43062 22.3946 7.93296 22.4027L3.80903 22.4705C3.02467 22.4833 2.53158 21.6293 2.93491 20.9564L5.05552 17.4189C5.31142 16.992 5.21442 16.4419 4.82794 16.1282L1.6253 13.5293C1.01617 13.035 1.18742 12.0638 1.92888 11.8076L5.82727 10.4608C6.29771 10.2982 6.57701 9.81448 6.48255 9.3258L5.69975 5.27628C5.55086 4.50607 6.30632 3.87216 7.03897 4.15253L10.891 5.62663C11.3559 5.80452 11.8808 5.61346 12.1226 5.17839L14.1259 1.57311Z" fill="url(#paint0_linear_2757_111835)"/>
<circle id="Ellipse 3165" cx="15" cy="15" r="4" fill="white"/>
</g>
<defs>
<linearGradient id="paint0_linear_2757_111835" x1="15" y1="0" x2="15" y2="30" gradientUnits="userSpaceOnUse">
<stop stop-color="#3375D9"/>
<stop offset="1" stop-color="#CFAB54"/>
</linearGradient>
</defs>
</svg>
