<svg width="40" height="40" viewBox="0 0 40 40" fill="none" xmlns="http://www.w3.org/2000/svg">
<g id="fi_9797381" clip-path="url(#clip0_2757_112126)">
<g id="Layer 2">
<g id="error">
<path id="background" d="M20 40C31.0457 40 40 31.0457 40 20C40 8.9543 31.0457 0 20 0C8.9543 0 0 8.9543 0 20C0 31.0457 8.9543 40 20 40Z" fill="#3375D9"/>
<path id="Vector" d="M20 9.21875C17.8677 9.21875 15.7832 9.85106 14.0103 11.0357C12.2373 12.2204 10.8554 13.9042 10.0394 15.8742C9.22342 17.8442 9.00992 20.012 9.42591 22.1033C9.84191 24.1947 10.8687 26.1157 12.3765 27.6235C13.8843 29.1313 15.8053 30.1581 17.8967 30.5741C19.988 30.9901 22.1558 30.7766 24.1258 29.9606C26.0958 29.1446 27.7796 27.7627 28.9643 25.9897C30.1489 24.2168 30.7813 22.1323 30.7813 20C30.7813 18.5842 30.5024 17.1822 29.9606 15.8742C29.4188 14.5662 28.6246 13.3776 27.6235 12.3765C26.6224 11.3754 25.4339 10.5812 24.1258 10.0394C22.8178 9.49762 21.4158 9.21875 20 9.21875ZM18.5805 13.2727C18.5805 13.1222 18.6402 12.978 18.7466 12.8716C18.853 12.7652 18.9972 12.7055 19.1477 12.7055H20.8523C21.0028 12.7055 21.147 12.7652 21.2534 12.8716C21.3598 12.978 21.4195 13.1222 21.4195 13.2727V21.9883C21.4195 22.1387 21.3598 22.283 21.2534 22.3893C21.147 22.4957 21.0028 22.5555 20.8523 22.5555H19.1477C18.9972 22.5555 18.853 22.4957 18.7466 22.3893C18.6402 22.283 18.5805 22.1387 18.5805 21.9883V13.2727ZM20 27.2945C19.6755 27.2945 19.3583 27.1983 19.0885 27.018C18.8187 26.8378 18.6084 26.5815 18.4843 26.2817C18.3601 25.982 18.3276 25.6521 18.3909 25.3338C18.4542 25.0156 18.6105 24.7233 18.8399 24.4938C19.0694 24.2644 19.3617 24.1081 19.6799 24.0448C19.9982 23.9815 20.3281 24.014 20.6278 24.1382C20.9276 24.2623 21.1839 24.4726 21.3641 24.7424C21.5444 25.0122 21.6406 25.3294 21.6406 25.6539C21.6406 26.089 21.4678 26.5063 21.1601 26.814C20.8524 27.1217 20.4351 27.2945 20 27.2945Z" fill="#D1D2D6"/>
</g>
</g>
</g>
<defs>
<clipPath id="clip0_2757_112126">
<rect width="40" height="40" fill="white"/>
</clipPath>
</defs>
</svg>
