<svg width="21" height="21" viewBox="0 0 21 21" fill="none" xmlns="http://www.w3.org/2000/svg">
<g id="solar:branching-paths-up-linear" clip-path="url(#clip0_2899_46425)">
<g id="Group">
<path id="Vector" d="M1.67041 10.4998C1.67041 6.5715 1.67041 4.60734 2.89041 3.3865C4.11208 2.1665 6.07541 2.1665 10.0037 2.1665C13.9321 2.1665 15.8962 2.1665 17.1162 3.3865C18.3371 4.60817 18.3371 6.5715 18.3371 10.4998C18.3371 14.4282 18.3371 16.3923 17.1162 17.6123C15.8971 18.8332 13.9321 18.8332 10.0037 18.8332C6.07541 18.8332 4.11124 18.8332 2.89041 17.6123C1.67041 16.3932 1.67041 14.4282 1.67041 10.4998Z" stroke="currentColor" stroke-width="1.5"/>
<path id="Vector_2" d="M9.37891 15.4998C9.37891 15.6656 9.44475 15.8245 9.56196 15.9417C9.67918 16.059 9.83815 16.1248 10.0039 16.1248C10.1697 16.1248 10.3286 16.059 10.4458 15.9417C10.5631 15.8245 10.6289 15.6656 10.6289 15.4998H9.37891ZM15.0039 7.16647L15.4456 7.60814C15.5626 7.49095 15.6284 7.33209 15.6284 7.16647C15.6284 7.00084 15.5626 6.84199 15.4456 6.7248L15.0039 7.16647ZM14.1956 5.4748C14.1384 5.4134 14.0694 5.36414 13.9927 5.32998C13.916 5.29582 13.8333 5.27746 13.7493 5.27598C13.6654 5.2745 13.5821 5.28993 13.5042 5.32137C13.4264 5.3528 13.3557 5.39959 13.2964 5.45894C13.237 5.51829 13.1902 5.58898 13.1588 5.6668C13.1274 5.74463 13.1119 5.82799 13.1134 5.9119C13.1149 5.99582 13.1333 6.07858 13.1674 6.15525C13.2016 6.23192 13.2508 6.30092 13.3122 6.35814L14.1956 5.4748ZM13.3122 7.9748C13.2508 8.03202 13.2016 8.10102 13.1674 8.17769C13.1333 8.25435 13.1149 8.33712 13.1134 8.42103C13.1119 8.50495 13.1274 8.58831 13.1588 8.66613C13.1902 8.74396 13.237 8.81465 13.2964 8.874C13.3557 8.93335 13.4264 8.98014 13.5042 9.01157C13.5821 9.04301 13.6654 9.05844 13.7493 9.05696C13.8333 9.05548 13.916 9.03711 13.9927 9.00295C14.0694 8.96879 14.1384 8.91954 14.1956 8.85814L13.3122 7.9748ZM10.6289 15.4998V10.4998H9.37891V15.4998H10.6289ZM13.3372 7.79147H15.0039V6.54147H13.3372V7.79147ZM15.4456 6.7248L14.1956 5.4748L13.3122 6.35814L14.5622 7.60814L15.4456 6.7248ZM14.5622 6.7248L13.3122 7.9748L14.1956 8.85814L15.4456 7.60814L14.5622 6.7248ZM10.6289 10.4998C10.6289 9.78151 10.9142 9.09263 11.4222 8.58472C11.9301 8.07681 12.6189 7.79147 13.3372 7.79147V6.54147C12.2874 6.54147 11.2806 6.95851 10.5383 7.70084C9.79594 8.44317 9.37891 9.44999 9.37891 10.4998H10.6289Z" fill="currentColor"/>
<path id="Vector_3" d="M9.37884 15.4999C9.37884 15.6656 9.44469 15.8246 9.5619 15.9418C9.67911 16.059 9.83808 16.1249 10.0038 16.1249C10.1696 16.1249 10.3286 16.059 10.4458 15.9418C10.563 15.8246 10.6288 15.6656 10.6288 15.4999H9.37884ZM5.00384 7.16654L4.56218 6.72487C4.44514 6.84206 4.37939 7.00091 4.37939 7.16654C4.37939 7.33216 4.44514 7.49102 4.56218 7.60821L5.00384 7.16654ZM6.69551 6.35821C6.80591 6.23973 6.86601 6.08302 6.86316 5.9211C6.8603 5.75919 6.79471 5.6047 6.6802 5.49019C6.56569 5.37568 6.4112 5.31008 6.24928 5.30723C6.08736 5.30437 5.93066 5.36447 5.81218 5.47487L6.69551 6.35821ZM5.81218 8.85821C5.8694 8.91961 5.9384 8.96886 6.01506 9.00302C6.09173 9.03718 6.17449 9.05555 6.25841 9.05703C6.34233 9.05851 6.42569 9.04308 6.50351 9.01164C6.58133 8.98021 6.65203 8.93342 6.71138 8.87407C6.77073 8.81472 6.81751 8.74403 6.84895 8.6662C6.88038 8.58838 6.89582 8.50502 6.89434 8.4211C6.89286 8.33718 6.87449 8.25442 6.84033 8.17776C6.80617 8.10109 6.75692 8.03209 6.69551 7.97487L5.81218 8.85821ZM10.6288 15.4999V10.4999H9.37884V15.4999H10.6288ZM6.67051 6.54154H5.00384V7.79154H6.67051V6.54154ZM5.44551 7.60821L6.69551 6.35821L5.81218 5.47487L4.56218 6.72487L5.44551 7.60821ZM4.56218 7.60821L5.81218 8.85821L6.69551 7.97487L5.44551 6.72487L4.56218 7.60821ZM10.6288 10.4999C10.6288 9.45006 10.2118 8.44324 9.46948 7.70091C8.72714 6.95858 7.72033 6.54154 6.67051 6.54154V7.79154C7.38881 7.79154 8.07768 8.07688 8.58559 8.58479C9.0935 9.0927 9.37884 9.78158 9.37884 10.4999H10.6288Z" fill="currentColor"/>
</g>
</g>
<defs>
<clipPath id="clip0_2899_46425">
<rect width="20" height="20" fill="white" transform="translate(0.00390625 0.5)"/>
</clipPath>
</defs>
</svg>
