<svg width="21" height="21" viewBox="0 0 21 21" fill="none" xmlns="http://www.w3.org/2000/svg">
<g id="ps:music" clip-path="url(#clip0_3015_4698)">
<path id="Vector" d="M18.9883 1.00771C18.3893 0.538965 17.6732 0.395736 16.8398 0.578027L8.51953 2.9999C7.97266 3.10407 7.52995 3.38402 7.19141 3.83975C6.85286 4.29548 6.68359 4.82282 6.68359 5.42178V14.6015C6.00651 14.0806 5.17318 13.8202 4.18359 13.8202C3.01172 13.8202 2.02214 14.1522 1.21484 14.8163C0.407552 15.4804 0.00390625 16.2681 0.00390625 17.1796C0.00390625 18.091 0.407552 18.8723 1.21484 19.5233C2.02214 20.1744 3.01172 20.4999 4.18359 20.4999C5.32943 20.4999 6.30599 20.1483 7.11328 19.4452C7.92057 18.7421 8.32422 17.9218 8.32422 16.9843V16.9452C8.29818 16.9192 8.27214 16.7108 8.24609 16.3202H8.32422V8.82022C8.32422 8.48167 8.51953 8.20824 8.91016 7.9999L17.2695 5.57803C17.4779 5.4999 17.7253 5.55199 18.0117 5.73428C18.2201 5.91657 18.3242 6.13792 18.3242 6.39834V11.9843C17.569 11.5416 16.7357 11.3202 15.8242 11.3202C14.6784 11.3202 13.7018 11.6522 12.8945 12.3163C12.0872 12.9804 11.6836 13.7681 11.6836 14.6796C11.6836 15.591 12.0872 16.3723 12.8945 17.0233C13.7018 17.6744 14.6784 17.9999 15.8242 17.9999C16.9961 17.9999 17.9857 17.6744 18.793 17.0233C19.6003 16.3723 20.0039 15.591 20.0039 14.6796C20.0039 14.4713 19.9518 14.1848 19.8477 13.8202H20.0039V2.9999C20.0039 2.19261 19.6654 1.52855 18.9883 1.00771ZM4.18359 18.8202C3.50651 18.8202 2.92057 18.6575 2.42578 18.3319C1.93099 18.0064 1.68359 17.6223 1.68359 17.1796C1.68359 16.7108 1.93099 16.3137 2.42578 15.9882C2.92057 15.6627 3.50651 15.4999 4.18359 15.4999C4.86068 15.4999 5.44661 15.6627 5.94141 15.9882C6.4362 16.3137 6.68359 16.7108 6.68359 17.1796C6.68359 17.6223 6.4362 18.0064 5.94141 18.3319C5.44661 18.6575 4.86068 18.8202 4.18359 18.8202ZM15.8242 16.3202C15.1471 16.3202 14.5612 16.1575 14.0664 15.8319C13.5716 15.5064 13.3242 15.1223 13.3242 14.6796C13.3242 14.2108 13.5716 13.8137 14.0664 13.4882C14.5612 13.1627 15.1471 12.9999 15.8242 12.9999C16.5013 12.9999 17.0872 13.1627 17.582 13.4882C18.0768 13.8137 18.3242 14.2108 18.3242 14.6796C18.3242 15.1223 18.0768 15.5064 17.582 15.8319C17.0872 16.1575 16.5013 16.3202 15.8242 16.3202ZM16.8398 4.09365L8.51953 6.51553C8.44141 6.51553 8.3763 6.54157 8.32422 6.59365V5.42178C8.32422 5.05719 8.51953 4.78376 8.91016 4.60146L17.2695 2.17959C17.6602 2.17959 17.9076 2.23167 18.0117 2.33584C18.2201 2.46605 18.3242 2.6874 18.3242 2.9999V4.09365C17.8555 3.88532 17.3607 3.88532 16.8398 4.09365Z" fill="currentColor"/>
</g>
<defs>
<clipPath id="clip0_3015_4698">
<rect width="20" height="20" fill="white" transform="translate(0.00390625 0.5)"/>
</clipPath>
</defs>
</svg>
