<svg width="21" height="20" viewBox="0 0 21 20" fill="none" xmlns="http://www.w3.org/2000/svg">
<g id="Iconsax/Bold/element3">
<path id="Vector" d="M18.3366 7.09984V3.3165C18.3366 2.1415 17.8033 1.6665 16.4783 1.6665H13.1116C11.7866 1.6665 11.2533 2.1415 11.2533 3.3165V7.0915C11.2533 8.27484 11.7866 8.7415 13.1116 8.7415H16.4783C17.8033 8.74984 18.3366 8.27484 18.3366 7.09984ZM18.3366 16.4748V13.1082C18.3366 11.7832 17.8033 11.2498 16.4783 11.2498H13.1116C11.7866 11.2498 11.2533 11.7832 11.2533 13.1082V16.4748C11.2533 17.7998 11.7866 18.3332 13.1116 18.3332H16.4783C17.8033 18.3332 18.3366 17.7998 18.3366 16.4748ZM8.75325 7.09984V3.3165C8.75325 2.1415 8.21992 1.6665 6.89492 1.6665H3.52826C2.20326 1.6665 1.66992 2.1415 1.66992 3.3165V7.0915C1.66992 8.27484 2.20326 8.7415 3.52826 8.7415H6.89492C8.21992 8.74984 8.75325 8.27484 8.75325 7.09984ZM8.75325 16.4748V13.1082C8.75325 11.7832 8.21992 11.2498 6.89492 11.2498H3.52826C2.20326 11.2498 1.66992 11.7832 1.66992 13.1082V16.4748C1.66992 17.7998 2.20326 18.3332 3.52826 18.3332H6.89492C8.21992 18.3332 8.75325 17.7998 8.75325 16.4748Z" fill="currentColor"/>
</g>
</svg>
