<svg width="26" height="25" viewBox="0 0 26 25" fill="none" xmlns="http://www.w3.org/2000/svg">
<g id="Frame">
<path id="Vector" d="M5.1875 11.7188H20.8125C21.0197 11.7188 21.2184 11.6364 21.3649 11.4899C21.5114 11.3434 21.5938 11.1447 21.5938 10.9375V8.59375C21.5938 8.49112 21.5737 8.38949 21.5345 8.29465C21.4953 8.19981 21.4378 8.11362 21.3652 8.04102L15.8965 2.57227C15.8239 2.49974 15.7377 2.44223 15.6429 2.40302C15.548 2.36381 15.4464 2.34367 15.3438 2.34375H5.96875C5.55435 2.34375 5.15692 2.50837 4.8639 2.8014C4.57087 3.09442 4.40625 3.49185 4.40625 3.90625V10.9375C4.40625 11.1447 4.48856 11.3434 4.63507 11.4899C4.78159 11.6364 4.9803 11.7188 5.1875 11.7188ZM15.3438 4.29688L19.6406 8.59375H15.3438V4.29688ZM22.375 14.8438C22.375 15.051 22.2927 15.2497 22.1462 15.3962C21.9997 15.5427 21.801 15.625 21.5938 15.625H19.25V17.1875H20.8125C21.0197 17.1875 21.2184 17.2698 21.3649 17.4163C21.5114 17.5628 21.5938 17.7615 21.5938 17.9688C21.5938 18.176 21.5114 18.3747 21.3649 18.5212C21.2184 18.6677 21.0197 18.75 20.8125 18.75H19.25V20.3125C19.25 20.5197 19.1677 20.7184 19.0212 20.8649C18.8747 21.0114 18.676 21.0938 18.4688 21.0938C18.2615 21.0938 18.0628 21.0114 17.9163 20.8649C17.7698 20.7184 17.6875 20.5197 17.6875 20.3125V14.8438C17.6875 14.6365 17.7698 14.4378 17.9163 14.2913C18.0628 14.1448 18.2615 14.0625 18.4688 14.0625H21.5938C21.801 14.0625 21.9997 14.1448 22.1462 14.2913C22.2927 14.4378 22.375 14.6365 22.375 14.8438ZM6.75 14.0625H5.1875C4.9803 14.0625 4.78159 14.1448 4.63507 14.2913C4.48856 14.4378 4.40625 14.6365 4.40625 14.8438V20.3125C4.40625 20.5197 4.48856 20.7184 4.63507 20.8649C4.78159 21.0114 4.9803 21.0938 5.1875 21.0938C5.3947 21.0938 5.59341 21.0114 5.73993 20.8649C5.88644 20.7184 5.96875 20.5197 5.96875 20.3125V19.5312H6.75C7.4752 19.5312 8.1707 19.2432 8.6835 18.7304C9.19629 18.2176 9.48438 17.5221 9.48438 16.7969C9.48438 16.0717 9.19629 15.3762 8.6835 14.8634C8.1707 14.3506 7.4752 14.0625 6.75 14.0625ZM6.75 17.9688H5.96875V15.625H6.75C7.0608 15.625 7.35887 15.7485 7.57864 15.9682C7.79841 16.188 7.92188 16.4861 7.92188 16.7969C7.92188 17.1077 7.79841 17.4057 7.57864 17.6255C7.35887 17.8453 7.0608 17.9688 6.75 17.9688ZM13 14.0625H11.4375C11.2303 14.0625 11.0316 14.1448 10.8851 14.2913C10.7386 14.4378 10.6562 14.6365 10.6562 14.8438V20.3125C10.6562 20.5197 10.7386 20.7184 10.8851 20.8649C11.0316 21.0114 11.2303 21.0938 11.4375 21.0938H13C13.9324 21.0938 14.8266 20.7234 15.4859 20.064C16.1452 19.4047 16.5156 18.5105 16.5156 17.5781C16.5156 16.6457 16.1452 15.7515 15.4859 15.0922C14.8266 14.4329 13.9324 14.0625 13 14.0625ZM13 19.5312H12.2188V15.625H13C13.518 15.625 14.0148 15.8308 14.3811 16.1971C14.7473 16.5633 14.9531 17.0601 14.9531 17.5781C14.9531 18.0961 14.7473 18.5929 14.3811 18.9592C14.0148 19.3255 13.518 19.5312 13 19.5312Z" fill="white"/>
</g>
</svg>
