<svg width="101" height="101" viewBox="0 0 101 101" fill="none" xmlns="http://www.w3.org/2000/svg">
<g id="material-symbols:question-mark">
<path id="Vector" d="M44.6082 67.3333C44.6082 61.6521 45.1174 57.5658 46.1358 55.0745C47.1542 52.5831 49.3103 49.8659 52.604 46.9229C55.4797 44.3979 57.6723 42.2054 59.1817 40.3453C60.6911 38.4852 61.4443 36.3642 61.4415 33.9823C61.4415 31.1066 60.4778 28.7219 58.5504 26.8281C56.623 24.9344 53.9395 23.9875 50.4999 23.9875C46.9228 23.9875 44.2042 25.0747 42.3441 27.249C40.484 29.4233 39.171 31.6326 38.4051 33.8771L27.5645 29.2479C29.0374 24.759 31.7377 20.8663 35.6655 17.5698C39.5933 14.2733 44.5381 12.625 50.4999 12.625C57.8645 12.625 63.5289 14.6773 67.4931 18.7818C71.4574 22.8863 73.4381 27.8129 73.4353 33.5615C73.4353 37.0684 72.682 40.0675 71.1754 42.5589C69.6688 45.0502 67.3009 47.8726 64.0717 51.026C60.6349 54.3226 58.549 56.8307 57.814 58.5505C57.0789 60.2703 56.71 63.1979 56.7072 67.3333H44.6082ZM50.4999 92.5833C48.1853 92.5833 46.2046 91.7585 44.5577 90.1088C42.9108 88.4592 42.086 86.4784 42.0832 84.1667C42.0832 81.8521 42.908 79.87 44.5577 78.2203C46.2074 76.5706 48.1881 75.7472 50.4999 75.75C52.8145 75.75 54.7966 76.5748 56.4462 78.2245C58.0959 79.8742 58.9193 81.8549 58.9165 84.1667C58.9165 86.4813 58.0917 88.4634 56.442 90.113C54.7924 91.7627 52.8116 92.5861 50.4999 92.5833Z" fill="#D1D2D6"/>
</g>
</svg>
