<svg width="21" height="21" viewBox="0 0 21 21" fill="none" xmlns="http://www.w3.org/2000/svg">
<g id="material-symbols:tips-and-updates-outline" clip-path="url(#clip0_2899_46438)">
<path id="Vector" d="M18.3372 8.83333L17.8164 7.6875L16.6706 7.16667L17.8164 6.64583L18.3372 5.5L18.8581 6.64583L20.0039 7.16667L18.8581 7.6875L18.3372 8.83333ZM15.8372 5.5L15.0456 3.79167L13.3372 3L15.0456 2.20833L15.8372 0.5L16.6289 2.20833L18.3372 3L16.6289 3.79167L15.8372 5.5ZM7.50391 18.8333C7.04557 18.8333 6.65307 18.67 6.32641 18.3433C5.99974 18.0167 5.83669 17.6244 5.83724 17.1667H9.17057C9.17057 17.625 9.00724 18.0175 8.68057 18.3442C8.35391 18.6708 7.96169 18.8339 7.50391 18.8333ZM4.17057 16.3333V14.6667H10.8372V16.3333H4.17057ZM4.37891 13.8333C3.42057 13.2639 2.66002 12.5 2.09724 11.5417C1.53446 10.5833 1.25335 9.54167 1.25391 8.41667C1.25391 6.68056 1.86168 5.20472 3.07724 3.98917C4.2928 2.77361 5.76835 2.16611 7.50391 2.16667C9.24002 2.16667 10.7159 2.77444 11.9314 3.99C13.147 5.20556 13.7545 6.68111 13.7539 8.41667C13.7539 9.54167 13.4728 10.5833 12.9106 11.5417C12.3484 12.5 11.5878 13.2639 10.6289 13.8333H4.37891ZM4.87891 12.1667H10.1289C10.7539 11.7222 11.2367 11.1736 11.5772 10.5208C11.9178 9.86806 12.0878 9.16667 12.0872 8.41667C12.0872 7.13889 11.6428 6.05556 10.7539 5.16667C9.86502 4.27778 8.78169 3.83333 7.50391 3.83333C6.22613 3.83333 5.1428 4.27778 4.25391 5.16667C3.36502 6.05556 2.92057 7.13889 2.92057 8.41667C2.92057 9.16667 3.09057 9.86806 3.43057 10.5208C3.77057 11.1736 4.25335 11.7222 4.87891 12.1667Z" fill="currentColor"/>
</g>
<defs>
<clipPath id="clip0_2899_46438">
<rect width="20" height="20" fill="white" transform="translate(0.00390625 0.5)"/>
</clipPath>
</defs>
</svg>
