<svg width="21" height="21" viewBox="0 0 21 21" fill="none" xmlns="http://www.w3.org/2000/svg">
<g id="Iconsax/Linear/clipboardtext">
<path id="Vector" d="M6.67139 10.6665H12.5047M6.67139 13.9998H10.3214M8.33805 5.49984H11.6714C13.3381 5.49984 13.3381 4.6665 13.3381 3.83317C13.3381 2.1665 12.5047 2.1665 11.6714 2.1665H8.33805C7.50472 2.1665 6.67139 2.1665 6.67139 3.83317C6.67139 5.49984 7.50472 5.49984 8.33805 5.49984Z" stroke="currentColor" stroke-width="1.5" stroke-miterlimit="10" stroke-linecap="round" stroke-linejoin="round"/>
<path id="Vector_2" d="M13.3372 3.8501C16.1122 4.0001 17.5039 5.0251 17.5039 8.83343V13.8334C17.5039 17.1668 16.6706 18.8334 12.5039 18.8334H7.50391C3.33724 18.8334 2.50391 17.1668 2.50391 13.8334V8.83343C2.50391 5.03343 3.89557 4.0001 6.67057 3.8501" stroke="currentColor" stroke-width="1.5" stroke-miterlimit="10" stroke-linecap="round" stroke-linejoin="round"/>
</g>
</svg>
