<svg width="21" height="21" viewBox="0 0 21 21" fill="none" xmlns="http://www.w3.org/2000/svg">
<g id="pajamas:user">
<path id="Vector" fill-rule="evenodd" clip-rule="evenodd" d="M13.1289 6.75023C13.1289 7.57903 12.7997 8.37389 12.2136 8.95994C11.6276 9.54599 10.8327 9.87523 10.0039 9.87523C9.1751 9.87523 8.38025 9.54599 7.7942 8.95994C7.20815 8.37389 6.87891 7.57903 6.87891 6.75023C6.87891 5.92143 7.20815 5.12657 7.7942 4.54052C8.38025 3.95447 9.1751 3.62523 10.0039 3.62523C10.8327 3.62523 11.6276 3.95447 12.2136 4.54052C12.7997 5.12657 13.1289 5.92143 13.1289 6.75023ZM13.7714 10.0377C14.4025 9.31438 14.8121 8.42464 14.9512 7.47479C15.0902 6.52493 14.9529 5.55512 14.5556 4.68121C14.1583 3.8073 13.5179 3.06624 12.7107 2.54654C11.9036 2.02684 10.9639 1.75049 10.0039 1.75049C9.04393 1.75049 8.10424 2.02684 7.2971 2.54654C6.48996 3.06624 5.84948 3.8073 5.45219 4.68121C5.0549 5.55512 4.91758 6.52493 5.05664 7.47479C5.19571 8.42464 5.60527 9.31438 6.23641 10.0377C5.16721 10.3184 4.22107 10.9452 3.5458 11.8204C2.87053 12.6956 2.50415 13.7698 2.50391 14.8752V16.7502C2.50391 17.4133 2.7673 18.0492 3.23614 18.518C3.70498 18.9868 4.34087 19.2502 5.00391 19.2502H15.0039C15.6669 19.2502 16.3028 18.9868 16.7717 18.518C17.2405 18.0492 17.5039 17.4133 17.5039 16.7502V14.8752C17.5037 13.7698 17.1373 12.6956 16.462 11.8204C15.7867 10.9452 14.8406 10.3184 13.7714 10.0377ZM10.0039 11.7502H7.50391C6.6751 11.7502 5.88025 12.0795 5.2942 12.6655C4.70815 13.2516 4.37891 14.0464 4.37891 14.8752V16.7502C4.37891 16.916 4.44475 17.075 4.56196 17.1922C4.67917 17.3094 4.83815 17.3752 5.00391 17.3752H15.0039C15.1697 17.3752 15.3286 17.3094 15.4458 17.1922C15.5631 17.075 15.6289 16.916 15.6289 16.7502V14.8752C15.6289 14.0464 15.2997 13.2516 14.7136 12.6655C14.1276 12.0795 13.3327 11.7502 12.5039 11.7502H10.0039Z" fill="currentColor"/>
</g>
</svg>
